<svg width="206.539" height="142.224" viewBox="147.457 408.712 154.904 106.668" xmlns="http://www.w3.org/2000/svg" xmlns:xlink="http://www.w3.org/1999/xlink" overflow="hidden"><g transform="matrix(1 0 0 -1 0 841)"><g stroke="#000000" stroke-width="1" stroke-linecap="round" stroke-linejoin="round" stroke-miterlimit="3" fill="none" fill-rule="evenodd" font-style="normal" font-weight="400" letter-spacing="0" baseline-shift="0"><g transform="matrix(0.6 0 0 0.6 0 841.65)"><g font-family="CalibriUnicode" font-size="13" transform="scale(1.19952 -1.19932)"><path d="M219 588C219 583 219 583 224 583L404 583C409 583 409 583 409 588L409 701C409 706 409 706 404 706L224 706C219 706 219 706 219 701L219 588" stroke="none" fill="#DFDFDF"/><path d="M216 585C216 580 216 580 221 580L401 580C406 580 406 580 406 585L406 698C406 703 406 703 401 703L221 703C216 703 216 703 216 698L216 585" stroke="none" stroke-width="2" fill="#D8BFD8"/><path d="M216 585C216 580 216 580 221 580L401 580C406 580 406 580 406 585L406 698C406 703 406 703 401 703L221 703C216 703 216 703 216 698L216 585M216 585C216 580 216 580 221 580L401 580C406 580 406 580 406 585L406 698C406 703 406 703 401 703L221 703C216 703 216 703 216 698L216 585" stroke-width="2"/><rect x="216" y="580" width="190" height="123" stroke-width="2"/><text stroke="none" fill="#000000" transform="translate(275 586)"><tspan x="0" y="13" dx="0">«</tspan><tspan x="7" y="13" dx="0">O</tspan><tspan x="16" y="13" dx="0">b</tspan><tspan x="23" y="13" dx="0">j</tspan><tspan x="26" y="13" dx="0">e</tspan><tspan x="33" y="13" dx="0">c</tspan><tspan x="38" y="13" dx="0 0">tt</tspan><tspan x="47" y="13" dx="0">y</tspan><tspan x="53" y="13" dx="0">p</tspan><tspan x="59" y="13" dx="0">e</tspan><tspan x="66" y="13" dx="0">»</tspan></text><text stroke="none" fill="#000000" font-weight="700" transform="translate(248 601)"><tspan x="0" y="13" dx="0">Geometrie::Geometrie</tspan></text><path d="M216 621 406 621" stroke-width="2"/><text stroke="none" fill="#000000" transform="translate(229 629)"><tspan x="0" y="13" dx="0">«</tspan><tspan x="7" y="13" dx="0">A</tspan><tspan x="14" y="13" dx="0 0">tt</tspan><tspan x="23" y="13" dx="0">r</tspan><tspan x="27" y="13" dx="0">i</tspan><tspan x="30" y="13" dx="0">b</tspan><tspan x="37" y="13" dx="0">u</tspan><tspan x="43" y="13" dx="0">u</tspan><tspan x="50" y="13" dx="0">t</tspan><tspan x="54" y="13" dx="0">s</tspan><tspan x="60" y="13" dx="0">o</tspan><tspan x="67" y="13" dx="0">o</tspan><tspan x="73" y="13" dx="0">r</tspan><tspan x="78" y="13" dx="0">t</tspan><tspan x="82" y="13" dx="0">»</tspan></text><text stroke="none" fill="#2F4F4F" transform="translate(221 644)"><tspan x="0" y="13" dx="0">+</tspan></text><text stroke="none" fill="#2F4F4F" transform="translate(242 644)"><tspan x="0" y="13" dx="0">id: CharacterString {id}</tspan></text><text stroke="none" fill="#2F4F4F" transform="translate(221 659)"><tspan x="0" y="13" dx="0">+</tspan></text><text stroke="none" fill="#2F4F4F" transform="translate(242 659)"><tspan x="0" y="13" dx="0">geometrie: GM_Object</tspan></text></g></g></g></g></svg>