<svg width="218.054" height="338.912" viewBox="143.859 10.0593 163.541 254.184" xmlns="http://www.w3.org/2000/svg" xmlns:xlink="http://www.w3.org/1999/xlink" overflow="hidden"><g transform="matrix(1 0 0 -1 0 841)"><g stroke="#000000" stroke-linecap="round" stroke-linejoin="round" stroke-miterlimit="3" fill="none" fill-rule="evenodd" font-weight="400" baseline-shift="0"><g transform="matrix(0.6 0 0 0.6 0 841.65)"><g font-family="CalibriUnicode" font-size="13" transform="scale(1.19952 -1.19932)"><path d="M214 233C214 228 214 228 219 228L411 228C416 228 416 228 416 233L416 352C416 357 416 357 411 357L219 357C214 357 214 357 214 352L214 233" stroke="none" fill="#DFDFDF"/><path d="M211 230C211 225 211 225 216 225L408 225C413 225 413 225 413 230L413 349C413 354 413 354 408 354L216 354C211 354 211 354 211 349L211 230" stroke="none" stroke-width="2" fill="#CCFFFF"/><path d="M211 230C211 225 211 225 216 225L408 225C413 225 413 225 413 230L413 349C413 354 413 354 408 354L216 354C211 354 211 354 211 349L211 230M211 230C211 225 211 225 216 225L408 225C413 225 413 225 413 230L413 349C413 354 413 354 408 354L216 354C211 354 211 354 211 349L211 230" stroke-width="2"/><text stroke="none" fill="#000000" font-style="italic" transform="translate(357 228)"><tspan x="0" y="13" dx="0">OWobject</tspan></text><text stroke="none" fill="#000000" transform="translate(276 249)"><tspan x="0" y="13" dx="0">«</tspan><tspan x="7" y="13" dx="0">O</tspan><tspan x="16" y="13" dx="0">b</tspan><tspan x="23" y="13" dx="0">j</tspan><tspan x="26" y="13" dx="0">e</tspan><tspan x="33" y="13" dx="0">c</tspan><tspan x="38" y="13" dx="0 0">tt</tspan><tspan x="47" y="13" dx="0">y</tspan><tspan x="53" y="13" dx="0">p</tspan><tspan x="59" y="13" dx="0">e</tspan><tspan x="66" y="13" dx="0">»</tspan></text><text stroke="none" fill="#000000" font-weight="700" transform="translate(254 264)"><tspan x="0" y="13" dx="0">VrijeTekst::Tekstdeel</tspan></text><path d="M211 284 413 284" stroke-width="2"/><text stroke="none" fill="#000000" transform="translate(224 292)"><tspan x="0" y="13" dx="0">«</tspan><tspan x="7" y="13" dx="0">A</tspan><tspan x="14" y="13" dx="0 0">tt</tspan><tspan x="23" y="13" dx="0">r</tspan><tspan x="27" y="13" dx="0">i</tspan><tspan x="30" y="13" dx="0">b</tspan><tspan x="37" y="13" dx="0">u</tspan><tspan x="43" y="13" dx="0">u</tspan><tspan x="50" y="13" dx="0">t</tspan><tspan x="54" y="13" dx="0">s</tspan><tspan x="60" y="13" dx="0">o</tspan><tspan x="67" y="13" dx="0">o</tspan><tspan x="73" y="13" dx="0">r</tspan><tspan x="78" y="13" dx="0">t</tspan><tspan x="82" y="13" dx="0">»</tspan></text><text stroke="none" fill="#2F4F4F" transform="translate(216 307)"><tspan x="0" y="13" dx="0">+</tspan></text><text stroke="none" fill="#2F4F4F" transform="translate(237 307)"><tspan x="0" y="13" dx="0">i</tspan><tspan x="3" y="13" dx="0">d</tspan><tspan x="10" y="13" dx="0">e</tspan><tspan x="17" y="13" dx="0">n</tspan><tspan x="23" y="13" dx="0 0">ti</tspan><tspan x="31" y="13" dx="0 0">fi</tspan><tspan x="38" y="13" dx="0">c</tspan><tspan x="44" y="13" dx="0">a</tspan><tspan x="51" y="13" dx="0 0">ti</tspan><tspan x="58" y="13" dx="0">e</tspan><tspan x="65" y="13" dx="0">:</tspan><tspan x="68" y="13" dx="0"> </tspan><tspan x="72" y="13" dx="0">N</tspan><tspan x="80" y="13" dx="0">E</tspan><tspan x="87" y="13" dx="0">N</tspan><tspan x="95" y="13" dx="0">3</tspan><tspan x="102" y="13" dx="0">6</tspan><tspan x="108" y="13" dx="0">1</tspan><tspan x="115" y="13" dx="0">0</tspan><tspan x="122" y="13" dx="0">I</tspan><tspan x="125" y="13" dx="0">D</tspan><tspan x="133" y="13" dx="0"> </tspan><tspan x="137" y="13" dx="0">{</tspan><tspan x="141" y="13" dx="0">i</tspan><tspan x="144" y="13" dx="0">d</tspan><tspan x="151" y="13" dx="0">}</tspan></text><text stroke="none" fill="#2F4F4F" transform="translate(216 322)"><tspan x="0" y="13" dx="0">+</tspan></text><text stroke="none" fill="#2F4F4F" transform="translate(237 322)"><tspan x="0" y="13" dx="0">i</tspan><tspan x="3" y="13" dx="0">d</tspan><tspan x="10" y="13" dx="0">e</tspan><tspan x="17" y="13" dx="0">a</tspan><tspan x="23" y="13" dx="0">l</tspan><tspan x="27" y="13" dx="0">i</tspan><tspan x="30" y="13" dx="0">s</tspan><tspan x="36" y="13" dx="0">a</tspan><tspan x="43" y="13" dx="0 0">ti</tspan><tspan x="50" y="13" dx="0">e</tspan><tspan x="57" y="13" dx="0">:</tspan><tspan x="60" y="13" dx="0"> </tspan><tspan x="63" y="13" dx="0">I</tspan><tspan x="67" y="13" dx="0">d</tspan><tspan x="73" y="13" dx="0">e</tspan><tspan x="80" y="13" dx="0">a</tspan><tspan x="87" y="13" dx="0">l</tspan><tspan x="90" y="13" dx="0">i</tspan><tspan x="93" y="13" dx="0">s</tspan><tspan x="99" y="13" dx="0">a</tspan><tspan x="106" y="13" dx="0 0">ti</tspan><tspan x="113" y="13" dx="0">e</tspan></text><text stroke="none" fill="#2F4F4F" transform="translate(216 337)"><tspan x="0" y="13" dx="0">+</tspan></text><text stroke="none" fill="#2F4F4F" transform="translate(237 337)"><tspan x="0" y="13" dx="0">thema: Thema [0..*]</tspan></text><text stroke="none" fill="#FF0000" font-family="ArialUnicode" font-style="italic" font-size="10" transform="translate(405 335)"><tspan x="0" y="8" dx="0">A</tspan></text><path d="M214 34C214 29 214 29 219 29L411 29C416 29 416 29 416 34L416 125C416 130 416 130 411 130L219 130C214 130 214 130 214 125L214 34" stroke="none" fill="#DFDFDF"/><path d="M211 31C211 26 211 26 216 26L408 26C413 26 413 26 413 31L413 122C413 127 413 127 408 127L216 127C211 127 211 127 211 122L211 31" stroke="none" stroke-width="2" fill="#99CCFF"/><path d="M211 31C211 26 211 26 216 26L408 26C413 26 413 26 413 31L413 122C413 127 413 127 408 127L216 127C211 127 211 127 211 122L211 31M211 31C211 26 211 26 216 26L408 26C413 26 413 26 413 31L413 122C413 127 413 127 408 127L216 127C211 127 211 127 211 122L211 31" stroke-width="2"/><text stroke="none" fill="#000000" font-style="italic" transform="translate(362 29)"><tspan x="0" y="13" dx="0">OPobject</tspan></text><text stroke="none" fill="#000000" transform="translate(276 50)"><tspan x="0" y="13" dx="0">«</tspan><tspan x="7" y="13" dx="0">O</tspan><tspan x="16" y="13" dx="0">b</tspan><tspan x="23" y="13" dx="0">j</tspan><tspan x="26" y="13" dx="0">e</tspan><tspan x="33" y="13" dx="0">c</tspan><tspan x="38" y="13" dx="0 0">tt</tspan><tspan x="47" y="13" dx="0">y</tspan><tspan x="53" y="13" dx="0">p</tspan><tspan x="59" y="13" dx="0">e</tspan><tspan x="66" y="13" dx="0">»</tspan></text><text stroke="none" fill="#000000" font-weight="700" transform="translate(240 65)"><tspan x="0" y="13" dx="0">VrijeTekst::FormeleDivisie</tspan></text><path d="M211 85 413 85" stroke-width="2"/><text stroke="none" fill="#000000" transform="translate(224 93)"><tspan x="0" y="13" dx="0">«</tspan><tspan x="7" y="13" dx="0">A</tspan><tspan x="14" y="13" dx="0 0">tt</tspan><tspan x="23" y="13" dx="0">r</tspan><tspan x="27" y="13" dx="0">i</tspan><tspan x="30" y="13" dx="0">b</tspan><tspan x="37" y="13" dx="0">u</tspan><tspan x="43" y="13" dx="0">u</tspan><tspan x="50" y="13" dx="0">t</tspan><tspan x="54" y="13" dx="0">s</tspan><tspan x="60" y="13" dx="0">o</tspan><tspan x="67" y="13" dx="0">o</tspan><tspan x="73" y="13" dx="0">r</tspan><tspan x="78" y="13" dx="0">t</tspan><tspan x="82" y="13" dx="0">»</tspan></text><text stroke="none" fill="#2F4F4F" transform="translate(216 108)"><tspan x="0" y="13" dx="0">+</tspan></text><text stroke="none" fill="#2F4F4F" transform="translate(237 108)"><tspan x="0" y="13" dx="0">i</tspan><tspan x="3" y="13" dx="0">d</tspan><tspan x="10" y="13" dx="0">e</tspan><tspan x="17" y="13" dx="0">n</tspan><tspan x="23" y="13" dx="0 0">ti</tspan><tspan x="31" y="13" dx="0 0">fi</tspan><tspan x="38" y="13" dx="0">c</tspan><tspan x="44" y="13" dx="0">a</tspan><tspan x="51" y="13" dx="0 0">ti</tspan><tspan x="58" y="13" dx="0">e</tspan><tspan x="65" y="13" dx="0">:</tspan><tspan x="68" y="13" dx="0"> </tspan><tspan x="72" y="13" dx="0">N</tspan><tspan x="80" y="13" dx="0">E</tspan><tspan x="87" y="13" dx="0">N</tspan><tspan x="95" y="13" dx="0">3</tspan><tspan x="102" y="13" dx="0">6</tspan><tspan x="108" y="13" dx="0">1</tspan><tspan x="115" y="13" dx="0">0</tspan><tspan x="122" y="13" dx="0">I</tspan><tspan x="125" y="13" dx="0">D</tspan><tspan x="133" y="13" dx="0"> </tspan><tspan x="137" y="13" dx="0">{</tspan><tspan x="141" y="13" dx="0">i</tspan><tspan x="144" y="13" dx="0">d</tspan><tspan x="151" y="13" dx="0">}</tspan></text><path d="M312 224 312 129M312 129 318 144M312 129 306 144"/><g transform="matrix(1 0 0 -1 315 210)"><rect x="0" y="-10" width="13" height="10" stroke="none" fill="#FFFFFF"/></g><text stroke="none" fill="#000000" font-size="8" transform="translate(315 210)"><tspan x="0" y="8" dx="0">1..*</tspan></text><g transform="matrix(1 0 0 -1 345 147)"><rect x="0" y="-10" width="52" height="10" stroke="none" fill="#FFFFFF"/></g><text stroke="none" fill="#000000" font-size="8" transform="translate(345 147)"><tspan x="0" y="8" dx="0">+formeleDivisie</tspan></text><g transform="matrix(1 0 0 -1 345 157)"><rect x="0" y="-10" width="39" height="10" stroke="none" fill="#FFFFFF"/></g><text stroke="none" fill="#000000" font-size="8" transform="translate(345 157)"><tspan x="0" y="8" dx="0">«</tspan><tspan x="4" y="8" dx="0">R</tspan><tspan x="8.25" y="8" dx="0">e</tspan><tspan x="12" y="8" dx="0">l</tspan><tspan x="14" y="8" dx="0">a</tspan><tspan x="17.5" y="8" dx="0 0">ti</tspan><tspan x="22.25" y="8" dx="0">e</tspan><tspan x="26" y="8" dx="0">r</tspan><tspan x="28.75" y="8" dx="0">o</tspan><tspan x="32.75" y="8" dx="0">l</tspan><tspan x="34.75" y="8" dx="0">»</tspan></text><g transform="matrix(1 0 0 -1 324 134)"><rect x="0" y="-10" width="4" height="10" stroke="none" fill="#FFFFFF"/></g><text stroke="none" fill="#000000" font-size="8" transform="translate(324 134)"><tspan x="0" y="8" dx="0">1</tspan></text></g></g></g></g></svg>