<svg width="648.92" height="557.668" viewBox="119.389 8.62013 486.69 418.251" xmlns="http://www.w3.org/2000/svg" xmlns:xlink="http://www.w3.org/1999/xlink" overflow="hidden"><g transform="matrix(1 0 0 -1 0 841)"><g stroke="#000000" stroke-linecap="round" stroke-linejoin="round" stroke-miterlimit="3" fill="none" fill-rule="evenodd" font-weight="400" baseline-shift="0"><g transform="matrix(0.6 0 0 0.6 0 841.65)"><g font-family="CalibriUnicode" font-size="13" transform="scale(1.19952 -1.19932)"><path d="M180 190C180 185 180 185 185 185L436 185C441 185 441 185 441 190L441 309C441 314 441 314 436 314L185 314C180 314 180 314 180 309L180 190" stroke="none" fill="#DFDFDF"/><path d="M177 187C177 182 177 182 182 182L433 182C438 182 438 182 438 187L438 306C438 311 438 311 433 311L182 311C177 311 177 311 177 306L177 187" stroke="none" stroke-width="2" fill="#CCFFFF"/><path d="M177 187C177 182 177 182 182 182L433 182C438 182 438 182 438 187L438 306C438 311 438 311 433 311L182 311C177 311 177 311 177 306L177 187M177 187C177 182 177 182 182 182L433 182C438 182 438 182 438 187L438 306C438 311 438 311 433 311L182 311C177 311 177 311 177 306L177 187" stroke-width="2"/><text stroke="none" fill="#000000" font-style="italic" transform="translate(382 185)"><tspan x="0" y="13" dx="0">OWobject</tspan></text><text stroke="none" fill="#000000" transform="translate(271 206)"><tspan x="0" y="13" dx="0">«</tspan><tspan x="7" y="13" dx="0">O</tspan><tspan x="16" y="13" dx="0">b</tspan><tspan x="23" y="13" dx="0">j</tspan><tspan x="26" y="13" dx="0">e</tspan><tspan x="33" y="13" dx="0">c</tspan><tspan x="38" y="13" dx="0 0">tt</tspan><tspan x="47" y="13" dx="0">y</tspan><tspan x="53" y="13" dx="0">p</tspan><tspan x="59" y="13" dx="0">e</tspan><tspan x="66" y="13" dx="0">»</tspan></text><text stroke="none" fill="#000000" font-weight="700" transform="translate(249 221)"><tspan x="0" y="13" dx="0">VrijeTekst::Tekstdeel</tspan></text><path d="M177 241 438 241" stroke-width="2"/><text stroke="none" fill="#000000" transform="translate(190 249)"><tspan x="0" y="13" dx="0">«</tspan><tspan x="7" y="13" dx="0">A</tspan><tspan x="14" y="13" dx="0 0">tt</tspan><tspan x="23" y="13" dx="0">r</tspan><tspan x="27" y="13" dx="0">i</tspan><tspan x="30" y="13" dx="0">b</tspan><tspan x="37" y="13" dx="0">u</tspan><tspan x="43" y="13" dx="0">u</tspan><tspan x="50" y="13" dx="0">t</tspan><tspan x="54" y="13" dx="0">s</tspan><tspan x="60" y="13" dx="0">o</tspan><tspan x="67" y="13" dx="0">o</tspan><tspan x="73" y="13" dx="0">r</tspan><tspan x="78" y="13" dx="0">t</tspan><tspan x="82" y="13" dx="0">»</tspan></text><text stroke="none" fill="#2F4F4F" transform="translate(182 264)"><tspan x="0" y="13" dx="0">+</tspan></text><text stroke="none" fill="#2F4F4F" transform="translate(203 264)"><tspan x="0" y="13" dx="0">i</tspan><tspan x="3" y="13" dx="0">d</tspan><tspan x="10" y="13" dx="0">e</tspan><tspan x="17" y="13" dx="0">n</tspan><tspan x="23" y="13" dx="0 0">ti</tspan><tspan x="31" y="13" dx="0 0">fi</tspan><tspan x="38" y="13" dx="0">c</tspan><tspan x="44" y="13" dx="0">a</tspan><tspan x="51" y="13" dx="0 0">ti</tspan><tspan x="58" y="13" dx="0">e</tspan><tspan x="65" y="13" dx="0">:</tspan><tspan x="68" y="13" dx="0"> </tspan><tspan x="72" y="13" dx="0">N</tspan><tspan x="80" y="13" dx="0">E</tspan><tspan x="87" y="13" dx="0">N</tspan><tspan x="95" y="13" dx="0">3</tspan><tspan x="102" y="13" dx="0">6</tspan><tspan x="108" y="13" dx="0">1</tspan><tspan x="115" y="13" dx="0">0</tspan><tspan x="122" y="13" dx="0">I</tspan><tspan x="125" y="13" dx="0">D</tspan><tspan x="133" y="13" dx="0"> </tspan><tspan x="137" y="13" dx="0">{</tspan><tspan x="141" y="13" dx="0">i</tspan><tspan x="144" y="13" dx="0">d</tspan><tspan x="151" y="13" dx="0">}</tspan></text><text stroke="none" fill="#2F4F4F" transform="translate(182 279)"><tspan x="0" y="13" dx="0">+</tspan></text><text stroke="none" fill="#2F4F4F" transform="translate(203 279)"><tspan x="0" y="13" dx="0">i</tspan><tspan x="3" y="13" dx="0">d</tspan><tspan x="10" y="13" dx="0">e</tspan><tspan x="17" y="13" dx="0">a</tspan><tspan x="23" y="13" dx="0">l</tspan><tspan x="27" y="13" dx="0">i</tspan><tspan x="30" y="13" dx="0">s</tspan><tspan x="36" y="13" dx="0">a</tspan><tspan x="43" y="13" dx="0 0">ti</tspan><tspan x="50" y="13" dx="0">e</tspan><tspan x="57" y="13" dx="0">:</tspan><tspan x="60" y="13" dx="0"> </tspan><tspan x="63" y="13" dx="0">I</tspan><tspan x="67" y="13" dx="0">d</tspan><tspan x="73" y="13" dx="0">e</tspan><tspan x="80" y="13" dx="0">a</tspan><tspan x="87" y="13" dx="0">l</tspan><tspan x="90" y="13" dx="0">i</tspan><tspan x="93" y="13" dx="0">s</tspan><tspan x="99" y="13" dx="0">a</tspan><tspan x="106" y="13" dx="0 0">ti</tspan><tspan x="113" y="13" dx="0">e</tspan></text><text stroke="none" fill="#2F4F4F" transform="translate(182 294)"><tspan x="0" y="13" dx="0">+</tspan></text><text stroke="none" fill="#2F4F4F" transform="translate(203 294)"><tspan x="0" y="13" dx="0">thema: Thema [0..*]</tspan></text><text stroke="none" fill="#FF0000" font-family="ArialUnicode" font-style="italic" font-size="10" transform="translate(430 292)"><tspan x="0" y="8" dx="0">A</tspan></text><path d="M226 32C226 27 226 27 231 27L408 27C413 27 413 27 413 32L413 123C413 128 413 128 408 128L231 128C226 128 226 128 226 123L226 32" stroke="none" fill="#DFDFDF"/><path d="M223 29C223 24 223 24 228 24L405 24C410 24 410 24 410 29L410 120C410 125 410 125 405 125L228 125C223 125 223 125 223 120L223 29" stroke="none" fill="#99CCFF"/><path d="M223 29C223 24 223 24 228 24L405 24C410 24 410 24 410 29L410 120C410 125 410 125 405 125L228 125C223 125 223 125 223 120L223 29M223 29C223 24 223 24 228 24L405 24C410 24 410 24 410 29L410 120C410 125 410 125 405 125L228 125C223 125 223 125 223 120L223 29"/><text stroke="none" fill="#000000" font-style="italic" transform="translate(359 27)"><tspan x="0" y="13" dx="0">OPobject</tspan></text><text stroke="none" fill="#000000" transform="translate(280 48)"><tspan x="0" y="13" dx="0">«</tspan><tspan x="7" y="13" dx="0">O</tspan><tspan x="16" y="13" dx="0">b</tspan><tspan x="23" y="13" dx="0">j</tspan><tspan x="26" y="13" dx="0">e</tspan><tspan x="33" y="13" dx="0">c</tspan><tspan x="38" y="13" dx="0 0">tt</tspan><tspan x="47" y="13" dx="0">y</tspan><tspan x="53" y="13" dx="0">p</tspan><tspan x="59" y="13" dx="0">e</tspan><tspan x="66" y="13" dx="0">»</tspan></text><text stroke="none" fill="#000000" font-weight="700" transform="translate(244 63)"><tspan x="0" y="13" dx="0">VrijeTekst::FormeleDivisie</tspan></text><path d="M223 83 410 83"/><text stroke="none" fill="#000000" transform="translate(236 91)"><tspan x="0" y="13" dx="0">«</tspan><tspan x="7" y="13" dx="0">A</tspan><tspan x="14" y="13" dx="0 0">tt</tspan><tspan x="23" y="13" dx="0">r</tspan><tspan x="27" y="13" dx="0">i</tspan><tspan x="30" y="13" dx="0">b</tspan><tspan x="37" y="13" dx="0">u</tspan><tspan x="43" y="13" dx="0">u</tspan><tspan x="50" y="13" dx="0">t</tspan><tspan x="54" y="13" dx="0">s</tspan><tspan x="60" y="13" dx="0">o</tspan><tspan x="67" y="13" dx="0">o</tspan><tspan x="73" y="13" dx="0">r</tspan><tspan x="78" y="13" dx="0">t</tspan><tspan x="82" y="13" dx="0">»</tspan></text><text stroke="none" fill="#2F4F4F" transform="translate(228 106)"><tspan x="0" y="13" dx="0">+</tspan></text><text stroke="none" fill="#2F4F4F" transform="translate(249 106)"><tspan x="0" y="13" dx="0">i</tspan><tspan x="3" y="13" dx="0">d</tspan><tspan x="10" y="13" dx="0">e</tspan><tspan x="17" y="13" dx="0">n</tspan><tspan x="23" y="13" dx="0 0">ti</tspan><tspan x="31" y="13" dx="0 0">fi</tspan><tspan x="38" y="13" dx="0">c</tspan><tspan x="44" y="13" dx="0">a</tspan><tspan x="51" y="13" dx="0 0">ti</tspan><tspan x="58" y="13" dx="0">e</tspan><tspan x="65" y="13" dx="0">:</tspan><tspan x="68" y="13" dx="0"> </tspan><tspan x="72" y="13" dx="0">N</tspan><tspan x="80" y="13" dx="0">E</tspan><tspan x="87" y="13" dx="0">N</tspan><tspan x="95" y="13" dx="0">3</tspan><tspan x="102" y="13" dx="0">6</tspan><tspan x="108" y="13" dx="0">1</tspan><tspan x="115" y="13" dx="0">0</tspan><tspan x="122" y="13" dx="0">I</tspan><tspan x="125" y="13" dx="0">D</tspan><tspan x="133" y="13" dx="0"> </tspan><tspan x="137" y="13" dx="0">{</tspan><tspan x="141" y="13" dx="0">i</tspan><tspan x="144" y="13" dx="0">d</tspan><tspan x="151" y="13" dx="0">}</tspan></text><path d="M180 442C180 437 180 437 185 437L408 437C413 437 413 437 413 442L413 578C413 583 413 583 408 583L185 583C180 583 180 583 180 578L180 442" stroke="none" fill="#DFDFDF"/><path d="M177 439C177 434 177 434 182 434L405 434C410 434 410 434 410 439L410 575C410 580 410 580 405 580L182 580C177 580 177 580 177 575L177 439" stroke="none" stroke-width="2" fill="#CCFFCC"/><path d="M177 439C177 434 177 434 182 434L405 434C410 434 410 434 410 439L410 575C410 580 410 580 405 580L182 580C177 580 177 580 177 575L177 439M177 439C177 434 177 434 182 434L405 434C410 434 410 434 410 439L410 575C410 580 410 580 405 580L182 580C177 580 177 580 177 575L177 439" stroke-width="2"/><text stroke="none" fill="#000000" font-style="italic" transform="translate(354 437)"><tspan x="0" y="13" dx="0">OWobject</tspan></text><text stroke="none" fill="#000000" transform="translate(257 458)"><tspan x="0" y="13" dx="0">«</tspan><tspan x="7" y="13" dx="0">O</tspan><tspan x="16" y="13" dx="0">b</tspan><tspan x="23" y="13" dx="0">j</tspan><tspan x="26" y="13" dx="0">e</tspan><tspan x="33" y="13" dx="0">c</tspan><tspan x="38" y="13" dx="0 0">tt</tspan><tspan x="47" y="13" dx="0">y</tspan><tspan x="53" y="13" dx="0">p</tspan><tspan x="59" y="13" dx="0">e</tspan><tspan x="66" y="13" dx="0">»</tspan></text><text stroke="none" fill="#000000" font-weight="700" transform="translate(185 473)"><tspan x="0" y="13" dx="0">GebiedsAanwijzing::Gebiedsaanwijzing</tspan></text><path d="M647 190C647 185 647 185 652 185L795 185C800 185 800 185 800 190L800 308C800 313 800 313 795 313L652 313C647 313 647 313 647 308L647 190" stroke="none" fill="#DFDFDF"/><path d="M644 187C644 182 644 182 649 182L792 182C797 182 797 182 797 187L797 305C797 310 797 310 792 310L649 310C644 310 644 310 644 305L644 187" stroke="none" stroke-width="2" fill="#CCFFFF"/><path d="M644 187C644 182 644 182 649 182L792 182C797 182 797 182 797 187L797 305C797 310 797 310 792 310L649 310C644 310 644 310 644 305L644 187M644 187C644 182 644 182 649 182L792 182C797 182 797 182 797 187L797 305C797 310 797 310 792 310L649 310C644 310 644 310 644 305L644 187" stroke-width="2"/><text stroke="none" fill="#000000" font-style="italic" transform="translate(741 185)"><tspan x="0" y="13" dx="0">OWobject</tspan></text><text stroke="none" fill="#000000" transform="translate(684 206)"><tspan x="0" y="13" dx="0">«</tspan><tspan x="7" y="13" dx="0">O</tspan><tspan x="16" y="13" dx="0">b</tspan><tspan x="23" y="13" dx="0">j</tspan><tspan x="26" y="13" dx="0">e</tspan><tspan x="33" y="13" dx="0">c</tspan><tspan x="38" y="13" dx="0 0">tt</tspan><tspan x="47" y="13" dx="0">y</tspan><tspan x="53" y="13" dx="0">p</tspan><tspan x="59" y="13" dx="0">e</tspan><tspan x="66" y="13" dx="0">»</tspan></text><text stroke="none" fill="#000000" font-weight="700" transform="translate(663 221)"><tspan x="0" y="13" dx="0">VrijeTekst::Hoofdlijn</tspan></text><path d="M589 442C589 437 589 437 594 437L795 437C800 437 800 437 800 442L800 577C800 582 800 582 795 582L594 582C589 582 589 582 589 577L589 442" stroke="none" fill="#DFDFDF"/><path d="M586 439C586 434 586 434 591 434L792 434C797 434 797 434 797 439L797 574C797 579 797 579 792 579L591 579C586 579 586 579 586 574L586 439" stroke="none" stroke-width="2" fill="#FFE4E1"/><path d="M586 439C586 434 586 434 591 434L792 434C797 434 797 434 797 439L797 574C797 579 797 579 792 579L591 579C586 579 586 579 586 574L586 439M586 439C586 434 586 434 591 434L792 434C797 434 797 434 797 439L797 574C797 579 797 579 792 579L591 579C586 579 586 579 586 574L586 439" stroke-width="2"/><text stroke="none" fill="#000000" font-style="italic" transform="translate(741 437)"><tspan x="0" y="13" dx="0">OWobject</tspan></text><text stroke="none" fill="#000000" transform="translate(655 458)"><tspan x="0" y="13" dx="0">«</tspan><tspan x="7" y="13" dx="0">O</tspan><tspan x="16" y="13" dx="0">b</tspan><tspan x="23" y="13" dx="0">j</tspan><tspan x="26" y="13" dx="0">e</tspan><tspan x="33" y="13" dx="0">c</tspan><tspan x="38" y="13" dx="0 0">tt</tspan><tspan x="47" y="13" dx="0">y</tspan><tspan x="53" y="13" dx="0">p</tspan><tspan x="59" y="13" dx="0">e</tspan><tspan x="66" y="13" dx="0">»</tspan></text><text stroke="none" fill="#000000" font-style="italic" font-weight="700" transform="translate(648 473)"><tspan x="0" y="13" dx="0">L</tspan><tspan x="6" y="13" dx="0">o</tspan><tspan x="13" y="13" dx="0">c</tspan><tspan x="18" y="13" dx="0">a</tspan><tspan x="25" y="13" dx="0 0">ti</tspan><tspan x="33" y="13" dx="0">e</tspan><tspan x="40" y="13" dx="0">:</tspan><tspan x="43" y="13" dx="0">:</tspan><tspan x="47" y="13" dx="0">L</tspan><tspan x="53" y="13" dx="0">o</tspan><tspan x="59" y="13" dx="0">c</tspan><tspan x="65" y="13" dx="0">a</tspan><tspan x="72" y="13" dx="0 0">ti</tspan><tspan x="80" y="13" dx="0">e</tspan></text><path d="M586 493 797 493" stroke-width="2"/><text stroke="none" fill="#000000" transform="translate(599 501)"><tspan x="0" y="13" dx="0">«</tspan><tspan x="7" y="13" dx="0">A</tspan><tspan x="14" y="13" dx="0 0">tt</tspan><tspan x="23" y="13" dx="0">r</tspan><tspan x="27" y="13" dx="0">i</tspan><tspan x="30" y="13" dx="0">b</tspan><tspan x="37" y="13" dx="0">u</tspan><tspan x="43" y="13" dx="0">u</tspan><tspan x="50" y="13" dx="0">t</tspan><tspan x="54" y="13" dx="0">s</tspan><tspan x="60" y="13" dx="0">o</tspan><tspan x="67" y="13" dx="0">o</tspan><tspan x="73" y="13" dx="0">r</tspan><tspan x="78" y="13" dx="0">t</tspan><tspan x="82" y="13" dx="0">»</tspan></text><text stroke="none" fill="#2F4F4F" transform="translate(591 516)"><tspan x="0" y="13" dx="0">+</tspan></text><text stroke="none" fill="#2F4F4F" transform="translate(612 516)"><tspan x="0" y="13" dx="0">i</tspan><tspan x="3" y="13" dx="0">d</tspan><tspan x="10" y="13" dx="0">e</tspan><tspan x="17" y="13" dx="0">n</tspan><tspan x="23" y="13" dx="0 0">ti</tspan><tspan x="31" y="13" dx="0 0">fi</tspan><tspan x="38" y="13" dx="0">c</tspan><tspan x="44" y="13" dx="0">a</tspan><tspan x="51" y="13" dx="0 0">ti</tspan><tspan x="58" y="13" dx="0">e</tspan><tspan x="65" y="13" dx="0">:</tspan><tspan x="68" y="13" dx="0"> </tspan><tspan x="72" y="13" dx="0">N</tspan><tspan x="80" y="13" dx="0">E</tspan><tspan x="87" y="13" dx="0">N</tspan><tspan x="95" y="13" dx="0">3</tspan><tspan x="102" y="13" dx="0">6</tspan><tspan x="108" y="13" dx="0">1</tspan><tspan x="115" y="13" dx="0">0</tspan><tspan x="122" y="13" dx="0">I</tspan><tspan x="125" y="13" dx="0">D</tspan><tspan x="133" y="13" dx="0"> </tspan><tspan x="137" y="13" dx="0">{</tspan><tspan x="141" y="13" dx="0">i</tspan><tspan x="144" y="13" dx="0">d</tspan><tspan x="151" y="13" dx="0">}</tspan></text><text stroke="none" fill="#2F4F4F" transform="translate(591 531)"><tspan x="0" y="13" dx="0">+</tspan></text><text stroke="none" fill="#2F4F4F" transform="translate(612 531)"><tspan x="0" y="13" dx="0">noemer: Characterstring [0..1]</tspan></text><path d="M440 246 643 246M643 246 628 252M643 246 628 240" stroke-width="2"/><path d="M305 181 305 126M305 126 311 141M305 126 299 141" stroke-width="2"/><path d="M362 312 362 364M362 364 658 364M658 364 658 434M658 434 652 419M658 434 664 419" stroke-width="2"/><path d="M831 73 411 73" stroke-dasharray="7 4"/><path d="M831 363 831 73" stroke-dasharray="7 4"/><path d="M698 363 831 363" stroke-dasharray="7 4"/><path d="M698 434 698 363" stroke-dasharray="7 4"/><path d="M698 434 693 419M698 434 703 419"/><path d="M412 498 585 498M585 498 570 504M585 498 570 492" stroke-width="2"/><path d="M304 313 304 433M304 433 298 418M304 433 310 418" stroke-width="2"/><g transform="matrix(1 0 0 -1 443 251)"><rect x="0" y="-10" width="13" height="10" stroke="none" fill="#FFFFFF"/></g><text stroke="none" fill="#000000" font-size="8" transform="translate(443 251)"><tspan x="0" y="8" dx="0">1..*</tspan></text><g transform="matrix(1 0 0 -1 575 270)"><rect x="0" y="-10" width="69" height="10" stroke="none" fill="#FFFFFF"/></g><text stroke="none" fill="#000000" font-size="8" transform="translate(575 270)"><tspan x="0" y="8" dx="0">+hoofdlijnaanduiding</tspan></text><g transform="matrix(1 0 0 -1 605 280)"><rect x="0" y="-10" width="39" height="10" stroke="none" fill="#FFFFFF"/></g><text stroke="none" fill="#000000" font-size="8" transform="translate(605 280)"><tspan x="0" y="8" dx="0">«</tspan><tspan x="4" y="8" dx="0">R</tspan><tspan x="8.25" y="8" dx="0">e</tspan><tspan x="12" y="8" dx="0">l</tspan><tspan x="14" y="8" dx="0">a</tspan><tspan x="17.5" y="8" dx="0 0">ti</tspan><tspan x="22.25" y="8" dx="0">e</tspan><tspan x="26" y="8" dx="0">r</tspan><tspan x="28.75" y="8" dx="0">o</tspan><tspan x="32.75" y="8" dx="0">l</tspan><tspan x="34.75" y="8" dx="0">»</tspan></text><g transform="matrix(1 0 0 -1 626 255)"><rect x="0" y="-10" width="13" height="10" stroke="none" fill="#FFFFFF"/></g><text stroke="none" fill="#000000" font-size="8" transform="translate(626 255)"><tspan x="0" y="8" dx="0">0..*</tspan></text><g transform="matrix(1 0 0 -1 415 503)"><rect x="0" y="-10" width="13" height="10" stroke="none" fill="#FFFFFF"/></g><text stroke="none" fill="#000000" font-size="8" transform="translate(415 503)"><tspan x="0" y="8" dx="0">0..*</tspan></text><g transform="matrix(1 0 0 -1 529 518)"><rect x="0" y="-10" width="63" height="10" stroke="none" fill="#FFFFFF"/></g><text stroke="none" fill="#000000" font-size="8" transform="translate(529 518)"><tspan x="0" y="8" dx="0">+</tspan><tspan x="4.25" y="8" dx="0">l</tspan><tspan x="6.25" y="8" dx="0">o</tspan><tspan x="10.75" y="8" dx="0">c</tspan><tspan x="14" y="8" dx="0">a</tspan><tspan x="17.75" y="8" dx="0 0">ti</tspan><tspan x="22.5" y="8" dx="0">e</tspan><tspan x="26.5" y="8" dx="0">a</tspan><tspan x="30.25" y="8" dx="0">a</tspan><tspan x="34" y="8" dx="0">n</tspan><tspan x="38.25" y="8" dx="0">d</tspan><tspan x="42.5" y="8" dx="0">u</tspan><tspan x="46.75" y="8" dx="0">i</tspan><tspan x="48.75" y="8" dx="0">d</tspan><tspan x="53" y="8" dx="0">i</tspan><tspan x="55" y="8" dx="0">n</tspan><tspan x="59.25" y="8" dx="0">g</tspan></text><g transform="matrix(1 0 0 -1 553 528)"><rect x="0" y="-10" width="39" height="10" stroke="none" fill="#FFFFFF"/></g><text stroke="none" fill="#000000" font-size="8" transform="translate(553 528)"><tspan x="0" y="8" dx="0">«</tspan><tspan x="4" y="8" dx="0">R</tspan><tspan x="8.25" y="8" dx="0">e</tspan><tspan x="12" y="8" dx="0">l</tspan><tspan x="14" y="8" dx="0">a</tspan><tspan x="17.5" y="8" dx="0 0">ti</tspan><tspan x="22.25" y="8" dx="0">e</tspan><tspan x="26" y="8" dx="0">r</tspan><tspan x="28.75" y="8" dx="0">o</tspan><tspan x="32.75" y="8" dx="0">l</tspan><tspan x="34.75" y="8" dx="0">»</tspan></text><g transform="matrix(1 0 0 -1 568 547)"><rect x="0" y="-10" width="13" height="10" stroke="none" fill="#FFFFFF"/></g><text stroke="none" fill="#000000" font-size="8" transform="translate(568 547)"><tspan x="0" y="8" dx="0">1..*</tspan></text><g transform="matrix(1 0 0 -1 315 169)"><rect x="0" y="-10" width="13" height="10" stroke="none" fill="#FFFFFF"/></g><text stroke="none" fill="#000000" font-size="8" transform="translate(315 169)"><tspan x="0" y="8" dx="0">1..*</tspan></text><g transform="matrix(1 0 0 -1 349 131)"><rect x="0" y="-10" width="52" height="10" stroke="none" fill="#FFFFFF"/></g><text stroke="none" fill="#000000" font-size="8" transform="translate(349 131)"><tspan x="0" y="8" dx="0">+formeleDivisie</tspan></text><g transform="matrix(1 0 0 -1 349 141)"><rect x="0" y="-10" width="39" height="10" stroke="none" fill="#FFFFFF"/></g><text stroke="none" fill="#000000" font-size="8" transform="translate(349 141)"><tspan x="0" y="8" dx="0">«</tspan><tspan x="4" y="8" dx="0">R</tspan><tspan x="8.25" y="8" dx="0">e</tspan><tspan x="12" y="8" dx="0">l</tspan><tspan x="14" y="8" dx="0">a</tspan><tspan x="17.5" y="8" dx="0 0">ti</tspan><tspan x="22.25" y="8" dx="0">e</tspan><tspan x="26" y="8" dx="0">r</tspan><tspan x="28.75" y="8" dx="0">o</tspan><tspan x="32.75" y="8" dx="0">l</tspan><tspan x="34.75" y="8" dx="0">»</tspan></text><g transform="matrix(1 0 0 -1 317 131)"><rect x="0" y="-10" width="4" height="10" stroke="none" fill="#FFFFFF"/></g><text stroke="none" fill="#000000" font-size="8" transform="translate(317 131)"><tspan x="0" y="8" dx="0">1</tspan></text><g transform="matrix(1 0 0 -1 414 78)"><rect x="0" y="-10" width="13" height="10" stroke="none" fill="#FFFFFF"/></g><text stroke="none" fill="#000000" font-size="8" transform="translate(414 78)"><tspan x="0" y="8" dx="0">0..*</tspan></text><g transform="matrix(1 0 0 -1 720 393)"><rect x="0" y="-10" width="57" height="10" stroke="none" fill="#FFFFFF"/></g><text stroke="none" fill="#000000" font-size="8" transform="translate(720 393)"><tspan x="0" y="8" dx="0">+werkingsgebied</tspan></text><g transform="matrix(1 0 0 -1 706 419)"><rect x="0" y="-10" width="13" height="10" stroke="none" fill="#FFFFFF"/></g><text stroke="none" fill="#000000" font-size="8" transform="translate(706 419)"><tspan x="0" y="8" dx="0">0..*</tspan></text><g transform="matrix(1 0 0 -1 342 390)"><rect x="0" y="-10" width="65" height="10" stroke="none" fill="#FFFFFF"/></g><text stroke="none" fill="#000000" font-size="8" transform="translate(342 390)"><tspan x="0" y="8" dx="0">+gebiedsaanwijzing</tspan></text><g transform="matrix(1 0 0 -1 342 400)"><rect x="0" y="-10" width="39" height="10" stroke="none" fill="#FFFFFF"/></g><text stroke="none" fill="#000000" font-size="8" transform="translate(342 400)"><tspan x="0" y="8" dx="0">«</tspan><tspan x="4" y="8" dx="0">R</tspan><tspan x="8.25" y="8" dx="0">e</tspan><tspan x="12" y="8" dx="0">l</tspan><tspan x="14" y="8" dx="0">a</tspan><tspan x="17.5" y="8" dx="0 0">ti</tspan><tspan x="22.25" y="8" dx="0">e</tspan><tspan x="26" y="8" dx="0">r</tspan><tspan x="28.75" y="8" dx="0">o</tspan><tspan x="32.75" y="8" dx="0">l</tspan><tspan x="34.75" y="8" dx="0">»</tspan></text><g transform="matrix(1 0 0 -1 319 417)"><rect x="0" y="-10" width="13" height="10" stroke="none" fill="#FFFFFF"/></g><text stroke="none" fill="#000000" font-size="8" transform="translate(319 417)"><tspan x="0" y="8" dx="0">0..*</tspan></text><g transform="matrix(1 0 0 -1 597 388)"><rect x="0" y="-10" width="63" height="10" stroke="none" fill="#FFFFFF"/></g><text stroke="none" fill="#000000" font-size="8" transform="translate(597 388)"><tspan x="0" y="8" dx="0">+</tspan><tspan x="4.25" y="8" dx="0">l</tspan><tspan x="6.25" y="8" dx="0">o</tspan><tspan x="10.75" y="8" dx="0">c</tspan><tspan x="14" y="8" dx="0">a</tspan><tspan x="17.75" y="8" dx="0 0">ti</tspan><tspan x="22.5" y="8" dx="0">e</tspan><tspan x="26.5" y="8" dx="0">a</tspan><tspan x="30.25" y="8" dx="0">a</tspan><tspan x="34" y="8" dx="0">n</tspan><tspan x="38.25" y="8" dx="0">d</tspan><tspan x="42.5" y="8" dx="0">u</tspan><tspan x="46.75" y="8" dx="0">i</tspan><tspan x="48.75" y="8" dx="0">d</tspan><tspan x="53" y="8" dx="0">i</tspan><tspan x="55" y="8" dx="0">n</tspan><tspan x="59.25" y="8" dx="0">g</tspan></text><g transform="matrix(1 0 0 -1 621 398)"><rect x="0" y="-10" width="39" height="10" stroke="none" fill="#FFFFFF"/></g><text stroke="none" fill="#000000" font-size="8" transform="translate(621 398)"><tspan x="0" y="8" dx="0">«</tspan><tspan x="4" y="8" dx="0">R</tspan><tspan x="8.25" y="8" dx="0">e</tspan><tspan x="12" y="8" dx="0">l</tspan><tspan x="14" y="8" dx="0">a</tspan><tspan x="17.5" y="8" dx="0 0">ti</tspan><tspan x="22.25" y="8" dx="0">e</tspan><tspan x="26" y="8" dx="0">r</tspan><tspan x="28.75" y="8" dx="0">o</tspan><tspan x="32.75" y="8" dx="0">l</tspan><tspan x="34.75" y="8" dx="0">»</tspan></text><g transform="matrix(1 0 0 -1 621 418)"><rect x="0" y="-10" width="13" height="10" stroke="none" fill="#FFFFFF"/></g><text stroke="none" fill="#000000" font-size="8" transform="translate(621 418)"><tspan x="0" y="8" dx="0">0..*</tspan></text></g></g></g></g></svg>