<svg width="807.892" height="444.561" viewBox="27.9707 65.217 605.919 333.421" xmlns="http://www.w3.org/2000/svg" xmlns:xlink="http://www.w3.org/1999/xlink" overflow="hidden"><g transform="matrix(1 0 0 -1 0 768)"><g stroke="#000000" stroke-width="1" stroke-linecap="round" stroke-linejoin="round" stroke-miterlimit="3" fill="none" fill-rule="evenodd" font-style="normal" font-weight="400" letter-spacing="0" baseline-shift="0"><g transform="matrix(0.6 0 0 0.6 0 768.2)"><g font-family="CalibriUnicode" font-size="13" transform="scale(1.19902 -1.19962)"><path d="M345 449C345 444 345 444 350 444L557 444C562 444 562 444 562 449L562 538C562 543 562 543 557 543L350 543C345 543 345 543 345 538L345 449" stroke="none" fill="#DFDFDF"/><path d="M342 446C342 441 342 441 347 441L554 441C559 441 559 441 559 446L559 535C559 540 559 540 554 540L347 540C342 540 342 540 342 535L342 446" stroke="none" stroke-width="2" fill="#CCFFCC"/><path d="M342 446C342 441 342 441 347 441L554 441C559 441 559 441 559 446L559 535C559 540 559 540 554 540L347 540C342 540 342 540 342 535L342 446M342 446C342 441 342 441 347 441L554 441C559 441 559 441 559 446L559 535C559 540 559 540 554 540L347 540C342 540 342 540 342 535L342 446" stroke-width="2"/><rect x="342" y="441" width="217" height="99" stroke-width="2"/><text stroke="none" fill="#000000" transform="translate(414 447)"><tspan x="0" y="13" dx="0">«</tspan><tspan x="7" y="13" dx="0">O</tspan><tspan x="16" y="13" dx="0">b</tspan><tspan x="23" y="13" dx="0">j</tspan><tspan x="26" y="13" dx="0">e</tspan><tspan x="33" y="13" dx="0">c</tspan><tspan x="38" y="13" dx="0 0">tt</tspan><tspan x="47" y="13" dx="0">y</tspan><tspan x="53" y="13" dx="0">p</tspan><tspan x="59" y="13" dx="0">e</tspan><tspan x="66" y="13" dx="0">»</tspan></text><text stroke="none" fill="#000000" font-weight="700" transform="translate(348 462)"><tspan x="0" y="13" dx="0">R</tspan><tspan x="8" y="13" dx="0">e</tspan><tspan x="14" y="13" dx="0">g</tspan><tspan x="21" y="13" dx="0">e</tspan><tspan x="28" y="13" dx="0">l</tspan><tspan x="31" y="13" dx="0">s</tspan><tspan x="36" y="13" dx="0">O</tspan><tspan x="45" y="13" dx="0">p</tspan><tspan x="53" y="13" dx="0">L</tspan><tspan x="58" y="13" dx="0">o</tspan><tspan x="66" y="13" dx="0">c</tspan><tspan x="72" y="13" dx="0">a</tspan><tspan x="78" y="13" dx="0 0">ti</tspan><tspan x="87" y="13" dx="0">e</tspan><tspan x="93" y="13" dx="0">:</tspan><tspan x="97" y="13" dx="0">:</tspan><tspan x="100" y="13" dx="0">O</tspan><tspan x="109" y="13" dx="0">m</tspan><tspan x="120" y="13" dx="0">g</tspan><tspan x="127" y="13" dx="0">e</tspan><tspan x="133" y="13" dx="0">v</tspan><tspan x="140" y="13" dx="0">i</tspan><tspan x="143" y="13" dx="0">n</tspan><tspan x="151" y="13" dx="0">g</tspan><tspan x="158" y="13" dx="0">s</tspan><tspan x="163" y="13" dx="0">w</tspan><tspan x="173" y="13" dx="0">a</tspan><tspan x="179" y="13" dx="0">a</tspan><tspan x="186" y="13" dx="0">r</tspan><tspan x="191" y="13" dx="0">d</tspan><tspan x="198" y="13" dx="0">e</tspan></text><path d="M342 482 559 482" stroke-width="2"/><text stroke="none" fill="#000000" transform="translate(355 490)"><tspan x="0" y="13" dx="0">«</tspan><tspan x="7" y="13" dx="0">A</tspan><tspan x="14" y="13" dx="0 0">tt</tspan><tspan x="23" y="13" dx="0">r</tspan><tspan x="27" y="13" dx="0">i</tspan><tspan x="30" y="13" dx="0">b</tspan><tspan x="37" y="13" dx="0">u</tspan><tspan x="43" y="13" dx="0">u</tspan><tspan x="50" y="13" dx="0">t</tspan><tspan x="54" y="13" dx="0">s</tspan><tspan x="60" y="13" dx="0">o</tspan><tspan x="67" y="13" dx="0">o</tspan><tspan x="73" y="13" dx="0">r</tspan><tspan x="78" y="13" dx="0">t</tspan><tspan x="82" y="13" dx="0">»</tspan></text><text stroke="none" fill="#2F4F4F" transform="translate(347 505)"><tspan x="0" y="13" dx="0">+</tspan></text><text stroke="none" fill="#2F4F4F" transform="translate(368 505)"><tspan x="0" y="13" dx="0">naam: CharacterString</tspan></text><text stroke="none" fill="#2F4F4F" transform="translate(347 520)"><tspan x="0" y="13" dx="0">+</tspan></text><text stroke="none" fill="#2F4F4F" transform="translate(368 520)"><tspan x="0" y="13" dx="0">groep: Omgevingswaardegroep</tspan></text><path d="M53 110C53 105 53 105 58 105L249 105C254 105 254 105 254 110L254 227C254 232 254 232 249 232L58 232C53 232 53 232 53 227L53 110" stroke="none" fill="#DFDFDF"/><path d="M50 107C50 102 50 102 55 102L246 102C251 102 251 102 251 107L251 224C251 229 251 229 246 229L55 229C50 229 50 229 50 224L50 107" stroke="none" stroke-width="2" fill="#CCFFFF"/><path d="M50 107C50 102 50 102 55 102L246 102C251 102 251 102 251 107L251 224C251 229 251 229 246 229L55 229C50 229 50 229 50 224L50 107M50 107C50 102 50 102 55 102L246 102C251 102 251 102 251 107L251 224C251 229 251 229 246 229L55 229C50 229 50 229 50 224L50 107" stroke-width="2"/><rect x="50" y="102" width="201" height="127" stroke-width="2"/><text stroke="none" fill="#000000" font-style="italic" transform="translate(195 105)"><tspan x="0" y="13" dx="0">OWobject</tspan></text><text stroke="none" fill="#000000" transform="translate(114 126)"><tspan x="0" y="13" dx="0">«</tspan><tspan x="7" y="13" dx="0">O</tspan><tspan x="16" y="13" dx="0">b</tspan><tspan x="23" y="13" dx="0">j</tspan><tspan x="26" y="13" dx="0">e</tspan><tspan x="33" y="13" dx="0">c</tspan><tspan x="38" y="13" dx="0 0">tt</tspan><tspan x="47" y="13" dx="0">y</tspan><tspan x="53" y="13" dx="0">p</tspan><tspan x="59" y="13" dx="0">e</tspan><tspan x="66" y="13" dx="0">»</tspan></text><text stroke="none" fill="#000000" font-weight="700" transform="translate(88 141)"><tspan x="0" y="13" dx="0">Regel::Juridische regel</tspan></text><path d="M50 161 251 161" stroke-width="2"/><text stroke="none" fill="#000000" transform="translate(63 169)"><tspan x="0" y="13" dx="0">«</tspan><tspan x="7" y="13" dx="0">A</tspan><tspan x="14" y="13" dx="0 0">tt</tspan><tspan x="23" y="13" dx="0">r</tspan><tspan x="27" y="13" dx="0">i</tspan><tspan x="30" y="13" dx="0">b</tspan><tspan x="37" y="13" dx="0">u</tspan><tspan x="43" y="13" dx="0">u</tspan><tspan x="50" y="13" dx="0">t</tspan><tspan x="54" y="13" dx="0">s</tspan><tspan x="60" y="13" dx="0">o</tspan><tspan x="67" y="13" dx="0">o</tspan><tspan x="73" y="13" dx="0">r</tspan><tspan x="78" y="13" dx="0">t</tspan><tspan x="82" y="13" dx="0">»</tspan></text><text stroke="none" fill="#2F4F4F" transform="translate(55 184)"><tspan x="0" y="13" dx="0">+</tspan></text><text stroke="none" fill="#2F4F4F" transform="translate(76 184)"><tspan x="0" y="13" dx="0">i</tspan><tspan x="3" y="13" dx="0">d</tspan><tspan x="10" y="13" dx="0">e</tspan><tspan x="17" y="13" dx="0">a</tspan><tspan x="23" y="13" dx="0">l</tspan><tspan x="27" y="13" dx="0">i</tspan><tspan x="30" y="13" dx="0">s</tspan><tspan x="36" y="13" dx="0">a</tspan><tspan x="43" y="13" dx="0 0">ti</tspan><tspan x="50" y="13" dx="0">e</tspan><tspan x="57" y="13" dx="0">:</tspan><tspan x="60" y="13" dx="0"> </tspan><tspan x="63" y="13" dx="0">I</tspan><tspan x="67" y="13" dx="0">d</tspan><tspan x="73" y="13" dx="0">e</tspan><tspan x="80" y="13" dx="0">a</tspan><tspan x="87" y="13" dx="0">l</tspan><tspan x="90" y="13" dx="0">i</tspan><tspan x="93" y="13" dx="0">s</tspan><tspan x="99" y="13" dx="0">a</tspan><tspan x="106" y="13" dx="0 0">ti</tspan><tspan x="113" y="13" dx="0">e</tspan></text><text stroke="none" fill="#2F4F4F" transform="translate(55 199)"><tspan x="0" y="13" dx="0">+</tspan></text><text stroke="none" fill="#2F4F4F" transform="translate(76 199)"><tspan x="0" y="13" dx="0">thema: Thema [0..*]</tspan></text><path d="M669 110C669 105 669 105 674 105L864 105C869 105 869 105 869 110L869 216C869 221 869 221 864 221L674 221C669 221 669 221 669 216L669 110" stroke="none" fill="#DFDFDF"/><path d="M666 107C666 102 666 102 671 102L861 102C866 102 866 102 866 107L866 213C866 218 866 218 861 218L671 218C666 218 666 218 666 213L666 107" stroke="none" fill="#FFE4E1"/><path d="M666 107C666 102 666 102 671 102L861 102C866 102 866 102 866 107L866 213C866 218 866 218 861 218L671 218C666 218 666 218 666 213L666 107M666 107C666 102 666 102 671 102L861 102C866 102 866 102 866 107L866 213C866 218 866 218 861 218L671 218C666 218 666 218 666 213L666 107"/><rect x="666" y="102" width="200" height="116"/><text stroke="none" fill="#000000" font-style="italic" transform="translate(810 105)"><tspan x="0" y="13" dx="0">OWobject</tspan></text><text stroke="none" fill="#000000" transform="translate(730 126)"><tspan x="0" y="13" dx="0">«</tspan><tspan x="7" y="13" dx="0">O</tspan><tspan x="16" y="13" dx="0">b</tspan><tspan x="23" y="13" dx="0">j</tspan><tspan x="26" y="13" dx="0">e</tspan><tspan x="33" y="13" dx="0">c</tspan><tspan x="38" y="13" dx="0 0">tt</tspan><tspan x="47" y="13" dx="0">y</tspan><tspan x="53" y="13" dx="0">p</tspan><tspan x="59" y="13" dx="0">e</tspan><tspan x="66" y="13" dx="0">»</tspan></text><text stroke="none" fill="#000000" font-style="italic" font-weight="700" transform="translate(723 141)"><tspan x="0" y="13" dx="0">L</tspan><tspan x="6" y="13" dx="0">o</tspan><tspan x="13" y="13" dx="0">c</tspan><tspan x="18" y="13" dx="0">a</tspan><tspan x="25" y="13" dx="0 0">ti</tspan><tspan x="33" y="13" dx="0">e</tspan><tspan x="40" y="13" dx="0">:</tspan><tspan x="43" y="13" dx="0">:</tspan><tspan x="47" y="13" dx="0">L</tspan><tspan x="53" y="13" dx="0">o</tspan><tspan x="59" y="13" dx="0">c</tspan><tspan x="65" y="13" dx="0">a</tspan><tspan x="72" y="13" dx="0 0">ti</tspan><tspan x="80" y="13" dx="0">e</tspan></text><path d="M666 161 866 161"/><text stroke="none" fill="#000000" transform="translate(679 169)"><tspan x="0" y="13" dx="0">«</tspan><tspan x="7" y="13" dx="0">A</tspan><tspan x="14" y="13" dx="0 0">tt</tspan><tspan x="23" y="13" dx="0">r</tspan><tspan x="27" y="13" dx="0">i</tspan><tspan x="30" y="13" dx="0">b</tspan><tspan x="37" y="13" dx="0">u</tspan><tspan x="43" y="13" dx="0">u</tspan><tspan x="50" y="13" dx="0">t</tspan><tspan x="54" y="13" dx="0">s</tspan><tspan x="60" y="13" dx="0">o</tspan><tspan x="67" y="13" dx="0">o</tspan><tspan x="73" y="13" dx="0">r</tspan><tspan x="78" y="13" dx="0">t</tspan><tspan x="82" y="13" dx="0">»</tspan></text><text stroke="none" fill="#2F4F4F" transform="translate(671 184)"><tspan x="0" y="13" dx="0">+</tspan></text><text stroke="none" fill="#2F4F4F" transform="translate(692 184)"><tspan x="0" y="13" dx="0">i</tspan><tspan x="3" y="13" dx="0">d</tspan><tspan x="10" y="13" dx="0">e</tspan><tspan x="17" y="13" dx="0">n</tspan><tspan x="23" y="13" dx="0 0">ti</tspan><tspan x="31" y="13" dx="0 0">fi</tspan><tspan x="38" y="13" dx="0">c</tspan><tspan x="44" y="13" dx="0">a</tspan><tspan x="51" y="13" dx="0 0">ti</tspan><tspan x="58" y="13" dx="0">e</tspan><tspan x="65" y="13" dx="0">:</tspan><tspan x="68" y="13" dx="0"> </tspan><tspan x="72" y="13" dx="0">N</tspan><tspan x="80" y="13" dx="0">E</tspan><tspan x="87" y="13" dx="0">N</tspan><tspan x="95" y="13" dx="0">3</tspan><tspan x="102" y="13" dx="0">6</tspan><tspan x="108" y="13" dx="0">1</tspan><tspan x="115" y="13" dx="0">0</tspan><tspan x="122" y="13" dx="0">I</tspan><tspan x="125" y="13" dx="0">D</tspan><tspan x="133" y="13" dx="0"> </tspan><tspan x="137" y="13" dx="0">{</tspan><tspan x="141" y="13" dx="0">i</tspan><tspan x="144" y="13" dx="0">d</tspan><tspan x="151" y="13" dx="0">}</tspan></text><text stroke="none" fill="#2F4F4F" transform="translate(671 199)"><tspan x="0" y="13" dx="0">+</tspan></text><text stroke="none" fill="#2F4F4F" transform="translate(692 199)"><tspan x="0" y="13" dx="0">noemer: Characterstring [0..1]</tspan></text><path d="M345 214C345 209 345 209 350 209L555 209C560 209 560 209 560 214L560 336C560 341 560 341 555 341L350 341C345 341 345 341 345 336L345 214" stroke="none" fill="#DFDFDF"/><path d="M342 211C342 206 342 206 347 206L552 206C557 206 557 206 557 211L557 333C557 338 557 338 552 338L347 338C342 338 342 338 342 333L342 211" stroke="none" stroke-width="2" fill="#CCFFCC"/><path d="M342 211C342 206 342 206 347 206L552 206C557 206 557 206 557 211L557 333C557 338 557 338 552 338L347 338C342 338 342 338 342 333L342 211M342 211C342 206 342 206 347 206L552 206C557 206 557 206 557 211L557 333C557 338 557 338 552 338L347 338C342 338 342 338 342 333L342 211" stroke-width="2"/><rect x="342" y="206" width="215" height="132" stroke-width="2"/><text stroke="none" fill="#000000" font-style="italic" transform="translate(501 209)"><tspan x="0" y="13" dx="0">OWobject</tspan></text><text stroke="none" fill="#000000" transform="translate(413 230)"><tspan x="0" y="13" dx="0">«</tspan><tspan x="7" y="13" dx="0">O</tspan><tspan x="16" y="13" dx="0">b</tspan><tspan x="23" y="13" dx="0">j</tspan><tspan x="26" y="13" dx="0">e</tspan><tspan x="33" y="13" dx="0">c</tspan><tspan x="38" y="13" dx="0 0">tt</tspan><tspan x="47" y="13" dx="0">y</tspan><tspan x="53" y="13" dx="0">p</tspan><tspan x="59" y="13" dx="0">e</tspan><tspan x="66" y="13" dx="0">»</tspan></text><text stroke="none" fill="#000000" font-style="italic" font-weight="700" transform="translate(385 245)"><tspan x="0" y="13" dx="0">R</tspan><tspan x="8" y="13" dx="0">e</tspan><tspan x="14" y="13" dx="0">g</tspan><tspan x="21" y="13" dx="0">e</tspan><tspan x="28" y="13" dx="0">l</tspan><tspan x="31" y="13" dx="0">s</tspan><tspan x="36" y="13" dx="0">O</tspan><tspan x="45" y="13" dx="0">p</tspan><tspan x="52" y="13" dx="0">L</tspan><tspan x="58" y="13" dx="0">o</tspan><tspan x="64" y="13" dx="0">c</tspan><tspan x="70" y="13" dx="0">a</tspan><tspan x="77" y="13" dx="0 0">ti</tspan><tspan x="85" y="13" dx="0">e</tspan><tspan x="92" y="13" dx="0">:</tspan><tspan x="95" y="13" dx="0">:</tspan><tspan x="98" y="13" dx="0">N</tspan><tspan x="108" y="13" dx="0">o</tspan><tspan x="114" y="13" dx="0">r</tspan><tspan x="119" y="13" dx="0">m</tspan></text><path d="M342 265 557 265" stroke-width="2"/><text stroke="none" fill="#000000" transform="translate(355 273)"><tspan x="0" y="13" dx="0">«</tspan><tspan x="7" y="13" dx="0">A</tspan><tspan x="14" y="13" dx="0 0">tt</tspan><tspan x="23" y="13" dx="0">r</tspan><tspan x="27" y="13" dx="0">i</tspan><tspan x="30" y="13" dx="0">b</tspan><tspan x="37" y="13" dx="0">u</tspan><tspan x="43" y="13" dx="0">u</tspan><tspan x="50" y="13" dx="0">t</tspan><tspan x="54" y="13" dx="0">s</tspan><tspan x="60" y="13" dx="0">o</tspan><tspan x="67" y="13" dx="0">o</tspan><tspan x="73" y="13" dx="0">r</tspan><tspan x="78" y="13" dx="0">t</tspan><tspan x="82" y="13" dx="0">»</tspan></text><text stroke="none" fill="#2F4F4F" transform="translate(347 288)"><tspan x="0" y="13" dx="0">+</tspan></text><text stroke="none" fill="#2F4F4F" transform="translate(368 288)"><tspan x="0" y="13" dx="0">i</tspan><tspan x="3" y="13" dx="0">d</tspan><tspan x="10" y="13" dx="0">e</tspan><tspan x="17" y="13" dx="0">n</tspan><tspan x="23" y="13" dx="0 0">ti</tspan><tspan x="31" y="13" dx="0 0">fi</tspan><tspan x="38" y="13" dx="0">c</tspan><tspan x="44" y="13" dx="0">a</tspan><tspan x="51" y="13" dx="0 0">ti</tspan><tspan x="58" y="13" dx="0">e</tspan><tspan x="65" y="13" dx="0">:</tspan><tspan x="68" y="13" dx="0"> </tspan><tspan x="72" y="13" dx="0">N</tspan><tspan x="80" y="13" dx="0">E</tspan><tspan x="87" y="13" dx="0">N</tspan><tspan x="95" y="13" dx="0">3</tspan><tspan x="102" y="13" dx="0">6</tspan><tspan x="108" y="13" dx="0">1</tspan><tspan x="115" y="13" dx="0">0</tspan><tspan x="122" y="13" dx="0">I</tspan><tspan x="125" y="13" dx="0">D</tspan><tspan x="133" y="13" dx="0"> </tspan><tspan x="137" y="13" dx="0">{</tspan><tspan x="141" y="13" dx="0">i</tspan><tspan x="144" y="13" dx="0">d</tspan><tspan x="151" y="13" dx="0">}</tspan></text><text stroke="none" fill="#000000" transform="translate(355 307)"><tspan x="0" y="13" dx="0">«Gegevensgroep»</tspan></text><text stroke="none" fill="#2F4F4F" transform="translate(347 322)"><tspan x="0" y="13" dx="0">+</tspan></text><text stroke="none" fill="#2F4F4F" transform="translate(368 322)"><tspan x="0" y="13" dx="0">normwaarde: Normwaarde [1..*]</tspan></text><path d="M598 411C598 406 598 406 603 406L865 406C870 406 870 406 870 411L870 538C870 543 870 543 865 543L603 543C598 543 598 543 598 538L598 411" stroke="none" fill="#DFDFDF"/><path d="M595 408C595 403 595 403 600 403L862 403C867 403 867 403 867 408L867 535C867 540 867 540 862 540L600 540C595 540 595 540 595 535L595 408" stroke="none" stroke-width="2" fill="#CCFFCC"/><path d="M595 408C595 403 595 403 600 403L862 403C867 403 867 403 867 408L867 535C867 540 867 540 862 540L600 540C595 540 595 540 595 535L595 408M595 408C595 403 595 403 600 403L862 403C867 403 867 403 867 408L867 535C867 540 867 540 862 540L600 540C595 540 595 540 595 535L595 408" stroke-width="2"/><rect x="595" y="403" width="272" height="137" stroke-width="2"/><text stroke="none" fill="#000000" transform="translate(672 409)"><tspan x="0" y="13" dx="0">«Gegevensgroeptype»</tspan></text><text stroke="none" fill="#000000" font-weight="700" transform="translate(644 424)"><tspan x="0" y="13" dx="0">R</tspan><tspan x="8" y="13" dx="0">e</tspan><tspan x="14" y="13" dx="0">g</tspan><tspan x="21" y="13" dx="0">e</tspan><tspan x="28" y="13" dx="0">l</tspan><tspan x="31" y="13" dx="0">s</tspan><tspan x="36" y="13" dx="0">O</tspan><tspan x="45" y="13" dx="0">p</tspan><tspan x="53" y="13" dx="0">L</tspan><tspan x="58" y="13" dx="0">o</tspan><tspan x="66" y="13" dx="0">c</tspan><tspan x="72" y="13" dx="0">a</tspan><tspan x="78" y="13" dx="0 0">ti</tspan><tspan x="87" y="13" dx="0">e</tspan><tspan x="93" y="13" dx="0">:</tspan><tspan x="97" y="13" dx="0">:</tspan><tspan x="100" y="13" dx="0">N</tspan><tspan x="109" y="13" dx="0">o</tspan><tspan x="117" y="13" dx="0">r</tspan><tspan x="122" y="13" dx="0">m</tspan><tspan x="133" y="13" dx="0">w</tspan><tspan x="143" y="13" dx="0">a</tspan><tspan x="149" y="13" dx="0">a</tspan><tspan x="156" y="13" dx="0">r</tspan><tspan x="161" y="13" dx="0">d</tspan><tspan x="168" y="13" dx="0">e</tspan></text><path d="M595 444 867 444" stroke-width="2"/><text stroke="none" fill="#000000" transform="translate(608 452)"><tspan x="0" y="13" dx="0">«</tspan><tspan x="7" y="13" dx="0">A</tspan><tspan x="14" y="13" dx="0 0">tt</tspan><tspan x="23" y="13" dx="0">r</tspan><tspan x="27" y="13" dx="0">i</tspan><tspan x="30" y="13" dx="0">b</tspan><tspan x="37" y="13" dx="0">u</tspan><tspan x="43" y="13" dx="0">u</tspan><tspan x="50" y="13" dx="0">t</tspan><tspan x="54" y="13" dx="0">s</tspan><tspan x="60" y="13" dx="0">o</tspan><tspan x="67" y="13" dx="0">o</tspan><tspan x="73" y="13" dx="0">r</tspan><tspan x="78" y="13" dx="0">t</tspan><tspan x="82" y="13" dx="0">»</tspan></text><text stroke="none" fill="#2F4F4F" transform="translate(600 467)"><tspan x="0" y="13" dx="0">+</tspan></text><text stroke="none" fill="#2F4F4F" transform="translate(621 467)"><tspan x="0" y="13" dx="0">k</tspan><tspan x="6" y="13" dx="0">w</tspan><tspan x="15" y="13" dx="0">a</tspan><tspan x="22" y="13" dx="0">l</tspan><tspan x="25" y="13" dx="0">i</tspan><tspan x="28" y="13" dx="0">t</tspan><tspan x="33" y="13" dx="0">a</tspan><tspan x="39" y="13" dx="0 0">ti</tspan><tspan x="47" y="13" dx="0">e</tspan><tspan x="53" y="13" dx="0">v</tspan><tspan x="59" y="13" dx="0">e</tspan><tspan x="66" y="13" dx="0">W</tspan><tspan x="78" y="13" dx="0">a</tspan><tspan x="84" y="13" dx="0">a</tspan><tspan x="91" y="13" dx="0">r</tspan><tspan x="95" y="13" dx="0">d</tspan><tspan x="102" y="13" dx="0">e</tspan><tspan x="108" y="13" dx="0">:</tspan><tspan x="112" y="13" dx="0"> </tspan><tspan x="115" y="13" dx="0">C</tspan><tspan x="123" y="13" dx="0">h</tspan><tspan x="129" y="13" dx="0">a</tspan><tspan x="136" y="13" dx="0">r</tspan><tspan x="140" y="13" dx="0">a</tspan><tspan x="147" y="13" dx="0">c</tspan><tspan x="153" y="13" dx="0">t</tspan><tspan x="157" y="13" dx="0">e</tspan><tspan x="163" y="13" dx="0">r</tspan><tspan x="168" y="13" dx="0">S</tspan><tspan x="173" y="13" dx="0">t</tspan><tspan x="178" y="13" dx="0">r</tspan><tspan x="182" y="13" dx="0">i</tspan><tspan x="185" y="13" dx="0">n</tspan><tspan x="192" y="13" dx="0">g</tspan><tspan x="198" y="13" dx="0"> </tspan><tspan x="202" y="13" dx="0">[</tspan><tspan x="206" y="13" dx="0">0</tspan><tspan x="213" y="13" dx="0">.</tspan><tspan x="216" y="13" dx="0">.</tspan><tspan x="219" y="13" dx="0">1</tspan><tspan x="226" y="13" dx="0">]</tspan></text><text stroke="none" fill="#2F4F4F" transform="translate(600 482)"><tspan x="0" y="13" dx="0">+</tspan></text><text stroke="none" fill="#2F4F4F" transform="translate(621 482)"><tspan x="0" y="13" dx="0">k</tspan><tspan x="6" y="13" dx="0">w</tspan><tspan x="15" y="13" dx="0">a</tspan><tspan x="22" y="13" dx="0">n</tspan><tspan x="28" y="13" dx="0 0">ti</tspan><tspan x="36" y="13" dx="0">t</tspan><tspan x="40" y="13" dx="0">a</tspan><tspan x="47" y="13" dx="0 0">ti</tspan><tspan x="54" y="13" dx="0">e</tspan><tspan x="61" y="13" dx="0">v</tspan><tspan x="67" y="13" dx="0">e</tspan><tspan x="73" y="13" dx="0">W</tspan><tspan x="85" y="13" dx="0">a</tspan><tspan x="92" y="13" dx="0">a</tspan><tspan x="98" y="13" dx="0">r</tspan><tspan x="103" y="13" dx="0">d</tspan><tspan x="109" y="13" dx="0">e</tspan><tspan x="116" y="13" dx="0">:</tspan><tspan x="119" y="13" dx="0"> </tspan><tspan x="123" y="13" dx="0">W</tspan><tspan x="134" y="13" dx="0">a</tspan><tspan x="141" y="13" dx="0">a</tspan><tspan x="148" y="13" dx="0">r</tspan><tspan x="152" y="13" dx="0">d</tspan><tspan x="158" y="13" dx="0">e</tspan><tspan x="165" y="13" dx="0">E</tspan><tspan x="172" y="13" dx="0">e</tspan><tspan x="178" y="13" dx="0">n</tspan><tspan x="185" y="13" dx="0">h</tspan><tspan x="192" y="13" dx="0">e</tspan><tspan x="198" y="13" dx="0">i</tspan><tspan x="202" y="13" dx="0">d</tspan><tspan x="209" y="13" dx="0"> </tspan><tspan x="212" y="13" dx="0">[</tspan><tspan x="216" y="13" dx="0">0</tspan><tspan x="223" y="13" dx="0">.</tspan><tspan x="226" y="13" dx="0">.</tspan><tspan x="229" y="13" dx="0">1</tspan><tspan x="236" y="13" dx="0">]</tspan></text><path d="M595 501 867 501" stroke-width="2"/><text stroke="none" fill="#000000" font-style="italic" transform="translate(702 505)"><tspan x="0" y="13" dx="0">constraints</tspan></text><text stroke="none" fill="#000000" transform="translate(600 520)"><tspan x="0" y="13" dx="0">{</tspan><tspan x="4" y="13" dx="0">w</tspan><tspan x="13" y="13" dx="0">a</tspan><tspan x="20" y="13" dx="0">a</tspan><tspan x="27" y="13" dx="0">r</tspan><tspan x="31" y="13" dx="0">d</tspan><tspan x="38" y="13" dx="0">e</tspan><tspan x="44" y="13" dx="0"> </tspan><tspan x="48" y="13" dx="0">i</tspan><tspan x="51" y="13" dx="0">s</tspan><tspan x="57" y="13" dx="0"> </tspan><tspan x="60" y="13" dx="0">k</tspan><tspan x="66" y="13" dx="0">w</tspan><tspan x="75" y="13" dx="0">a</tspan><tspan x="82" y="13" dx="0">l</tspan><tspan x="85" y="13" dx="0">i</tspan><tspan x="88" y="13" dx="0">t</tspan><tspan x="93" y="13" dx="0">a</tspan><tspan x="99" y="13" dx="0 0">ti</tspan><tspan x="107" y="13" dx="0">e</tspan><tspan x="113" y="13" dx="0">f</tspan><tspan x="118" y="13" dx="0"> </tspan><tspan x="121" y="13" dx="0">o</tspan><tspan x="128" y="13" dx="0">f</tspan><tspan x="132" y="13" dx="0"> </tspan><tspan x="135" y="13" dx="0">k</tspan><tspan x="141" y="13" dx="0">w</tspan><tspan x="150" y="13" dx="0">a</tspan><tspan x="157" y="13" dx="0">n</tspan><tspan x="163" y="13" dx="0 0">ti</tspan><tspan x="171" y="13" dx="0">t</tspan><tspan x="175" y="13" dx="0">a</tspan><tspan x="182" y="13" dx="0 0">ti</tspan><tspan x="189" y="13" dx="0">e</tspan><tspan x="196" y="13" dx="0">f</tspan><tspan x="200" y="13" dx="0">}</tspan></text><path d="M753 288C753 283 753 283 758 283L865 283C870 283 870 283 870 288L870 366C870 371 870 371 865 371L758 371C753 371 753 371 753 366L753 288" stroke="none" fill="#DFDFDF"/><path d="M750 285C750 280 750 280 755 280L862 280C867 280 867 280 867 285L867 363C867 368 867 368 862 368L755 368C750 368 750 368 750 363L750 285" stroke="none" fill="#FBF9C6"/><path d="M750 285C750 280 750 280 755 280L862 280C867 280 867 280 867 285L867 363C867 368 867 368 862 368L755 368C750 368 750 368 750 363L750 285M750 285C750 280 750 280 755 280L862 280C867 280 867 280 867 285L867 363C867 368 867 368 862 368L755 368C750 368 750 368 750 363L750 285"/><rect x="750" y="280" width="117" height="88"/><text stroke="none" fill="#000000" font-size="8" transform="translate(764 286)"><tspan x="0" y="8" dx="0">«Gestructureerd datatype»</tspan></text><text stroke="none" fill="#000000" font-weight="700" font-size="8" transform="translate(782 296)"><tspan x="0" y="8" dx="0">WaardeEenheid</tspan></text><path d="M750 311 867 311"/><text stroke="none" fill="#000000" font-size="8" transform="translate(761 319)"><tspan x="0" y="8" dx="0">«Data element»</tspan></text><text stroke="none" fill="#2F4F4F" font-size="8" transform="translate(755 329)"><tspan x="0" y="8" dx="0">+</tspan></text><text stroke="none" fill="#2F4F4F" font-size="8" transform="translate(769 329)"><tspan x="0" y="8" dx="0">waarde: Real</tspan></text><text stroke="none" fill="#2F4F4F" font-size="8" transform="translate(755 339)"><tspan x="0" y="8" dx="0">+</tspan></text><text stroke="none" fill="#2F4F4F" font-size="8" transform="translate(769 339)"><tspan x="0" y="8" dx="0">eenheid: Eenheid</tspan></text><text stroke="none" fill="#000000" font-style="italic" font-size="8" transform="translate(763 374)"><tspan x="0" y="8" dx="0">(from Datatypen Algemeen)</tspan></text><path d="M81 455C81 450 81 450 86 450L221 450C226 450 226 450 226 455L226 538C226 543 226 543 221 543L86 543C81 543 81 543 81 538L81 455" stroke="none" fill="#DFDFDF"/><path d="M78 452C78 447 78 447 83 447L218 447C223 447 223 447 223 452L223 535C223 540 223 540 218 540L83 540C78 540 78 540 78 535L78 452" stroke="none" fill="#CCFFFF"/><path d="M78 452C78 447 78 447 83 447L218 447C223 447 223 447 223 452L223 535C223 540 223 540 218 540L83 540C78 540 78 540 78 535L78 452M78 452C78 447 78 447 83 447L218 447C223 447 223 447 223 452L223 535C223 540 223 540 218 540L83 540C78 540 78 540 78 535L78 452"/><rect x="78" y="447" width="145" height="93"/><text stroke="none" fill="#000000" font-size="14" transform="translate(113 453)"><tspan x="0" y="13" dx="0">«</tspan><tspan x="8" y="13" dx="0">O</tspan><tspan x="17" y="13" dx="0">b</tspan><tspan x="24" y="13" dx="0">j</tspan><tspan x="28" y="13" dx="0">e</tspan><tspan x="34" y="13" dx="0">c</tspan><tspan x="40" y="13" dx="0 0">tt</tspan><tspan x="50" y="13" dx="0">y</tspan><tspan x="57" y="13" dx="0">p</tspan><tspan x="64" y="13" dx="0">e</tspan><tspan x="71" y="13" dx="0">»</tspan></text><text stroke="none" fill="#000000" font-weight="700" font-size="14" transform="translate(130 470)"><tspan x="0" y="13" dx="0">Regel::</tspan><tspan x="-50" y="30" dx="0">Omgevingswaarderegel</tspan></text><path d="M224 485 342 485M342 485 327 491M342 485 327 479" stroke-width="2"/><path d="M253 153 666 153M666 153 651 159M666 153 651 147" stroke-width="2"/><path d="M145 447 145 230" stroke-width="2"/><path d="M151 246 139 246 145 230 151 246" stroke-width="2" fill="#F7DDB4"/><path d="M698 402 698 219M698 219 704 234M698 219 692 234" stroke-width="2"/><path d="M445 440 445 340" stroke-width="2"/><path d="M451 356 439 356 445 340 451 356" stroke-width="2" fill="#F7DDB4"/><g transform="matrix(1 0 0 -1 253 157)"><rect x="0" y="-10" width="13" height="10" stroke="none" fill="#FFFFFF"/></g><text stroke="none" fill="#000000" font-size="8" transform="translate(253 157)"><tspan x="0" y="8" dx="0">1..*</tspan></text><g transform="matrix(1 0 0 -1 588 122)"><rect x="0" y="-10" width="63" height="10" stroke="none" fill="#FFFFFF"/></g><text stroke="none" fill="#000000" font-size="8" transform="translate(588 122)"><tspan x="0" y="8" dx="0">+</tspan><tspan x="4.25" y="8" dx="0">l</tspan><tspan x="6.25" y="8" dx="0">o</tspan><tspan x="10.75" y="8" dx="0">c</tspan><tspan x="14" y="8" dx="0">a</tspan><tspan x="17.75" y="8" dx="0 0">ti</tspan><tspan x="22.5" y="8" dx="0">e</tspan><tspan x="26.5" y="8" dx="0">a</tspan><tspan x="30.25" y="8" dx="0">a</tspan><tspan x="34" y="8" dx="0">n</tspan><tspan x="38.25" y="8" dx="0">d</tspan><tspan x="42.5" y="8" dx="0">u</tspan><tspan x="46.75" y="8" dx="0">i</tspan><tspan x="48.75" y="8" dx="0">d</tspan><tspan x="53" y="8" dx="0">i</tspan><tspan x="55" y="8" dx="0">n</tspan><tspan x="59.25" y="8" dx="0">g</tspan></text><g transform="matrix(1 0 0 -1 612 132)"><rect x="0" y="-10" width="39" height="10" stroke="none" fill="#FFFFFF"/></g><text stroke="none" fill="#000000" font-size="8" transform="translate(612 132)"><tspan x="0" y="8" dx="0">«</tspan><tspan x="4" y="8" dx="0">R</tspan><tspan x="8.25" y="8" dx="0">e</tspan><tspan x="12" y="8" dx="0">l</tspan><tspan x="14" y="8" dx="0">a</tspan><tspan x="17.5" y="8" dx="0 0">ti</tspan><tspan x="22.25" y="8" dx="0">e</tspan><tspan x="26" y="8" dx="0">r</tspan><tspan x="28.75" y="8" dx="0">o</tspan><tspan x="32.75" y="8" dx="0">l</tspan><tspan x="34.75" y="8" dx="0">»</tspan></text><g transform="matrix(1 0 0 -1 613 154)"><rect x="0" y="-10" width="13" height="10" stroke="none" fill="#FFFFFF"/></g><text stroke="none" fill="#000000" font-size="8" transform="translate(613 154)"><tspan x="0" y="8" dx="0">1..*</tspan></text><g transform="matrix(1 0 0 -1 701 388)"><rect x="0" y="-10" width="13" height="10" stroke="none" fill="#FFFFFF"/></g><text stroke="none" fill="#000000" font-size="8" transform="translate(701 388)"><tspan x="0" y="8" dx="0">0..*</tspan></text><g transform="matrix(1 0 0 -1 705 238)"><rect x="0" y="-10" width="63" height="10" stroke="none" fill="#FFFFFF"/></g><text stroke="none" fill="#000000" font-size="8" transform="translate(705 238)"><tspan x="0" y="8" dx="0">+</tspan><tspan x="4.25" y="8" dx="0">l</tspan><tspan x="6.25" y="8" dx="0">o</tspan><tspan x="10.75" y="8" dx="0">c</tspan><tspan x="14" y="8" dx="0">a</tspan><tspan x="17.75" y="8" dx="0 0">ti</tspan><tspan x="22.5" y="8" dx="0">e</tspan><tspan x="26.5" y="8" dx="0">a</tspan><tspan x="30.25" y="8" dx="0">a</tspan><tspan x="34" y="8" dx="0">n</tspan><tspan x="38.25" y="8" dx="0">d</tspan><tspan x="42.5" y="8" dx="0">u</tspan><tspan x="46.75" y="8" dx="0">i</tspan><tspan x="48.75" y="8" dx="0">d</tspan><tspan x="53" y="8" dx="0">i</tspan><tspan x="55" y="8" dx="0">n</tspan><tspan x="59.25" y="8" dx="0">g</tspan></text><g transform="matrix(1 0 0 -1 705 248)"><rect x="0" y="-10" width="39" height="10" stroke="none" fill="#FFFFFF"/></g><text stroke="none" fill="#000000" font-size="8" transform="translate(705 248)"><tspan x="0" y="8" dx="0">«</tspan><tspan x="4" y="8" dx="0">R</tspan><tspan x="8.25" y="8" dx="0">e</tspan><tspan x="12" y="8" dx="0">l</tspan><tspan x="14" y="8" dx="0">a</tspan><tspan x="17.5" y="8" dx="0 0">ti</tspan><tspan x="22.25" y="8" dx="0">e</tspan><tspan x="26" y="8" dx="0">r</tspan><tspan x="28.75" y="8" dx="0">o</tspan><tspan x="32.75" y="8" dx="0">l</tspan><tspan x="34.75" y="8" dx="0">»</tspan></text><g transform="matrix(1 0 0 -1 715 226)"><rect x="0" y="-10" width="13" height="10" stroke="none" fill="#FFFFFF"/></g><text stroke="none" fill="#000000" font-size="8" transform="translate(715 226)"><tspan x="0" y="8" dx="0">1..*</tspan></text><g transform="matrix(1 0 0 -1 227 490)"><rect x="0" y="-10" width="13" height="10" stroke="none" fill="#FFFFFF"/></g><text stroke="none" fill="#000000" font-size="8" transform="translate(227 490)"><tspan x="0" y="8" dx="0">1..*</tspan></text><g transform="matrix(1 0 0 -1 226 458)"><rect x="0" y="-10" width="103" height="10" stroke="none" fill="#FFFFFF"/></g><text stroke="none" fill="#000000" font-size="8" transform="translate(226 458)"><tspan x="0" y="8" dx="0">+omgevingswaardeaanduiding</tspan></text><g transform="matrix(1 0 0 -1 226 468)"><rect x="0" y="-10" width="39" height="10" stroke="none" fill="#FFFFFF"/></g><text stroke="none" fill="#000000" font-size="8" transform="translate(226 468)"><tspan x="0" y="8" dx="0">«</tspan><tspan x="4" y="8" dx="0">R</tspan><tspan x="8.25" y="8" dx="0">e</tspan><tspan x="12" y="8" dx="0">l</tspan><tspan x="14" y="8" dx="0">a</tspan><tspan x="17.5" y="8" dx="0 0">ti</tspan><tspan x="22.25" y="8" dx="0">e</tspan><tspan x="26" y="8" dx="0">r</tspan><tspan x="28.75" y="8" dx="0">o</tspan><tspan x="32.75" y="8" dx="0">l</tspan><tspan x="34.75" y="8" dx="0">»</tspan></text><g transform="matrix(1 0 0 -1 327 490)"><rect x="0" y="-10" width="13" height="10" stroke="none" fill="#FFFFFF"/></g><text stroke="none" fill="#000000" font-size="8" transform="translate(327 490)"><tspan x="0" y="8" dx="0">0..*</tspan></text></g></g></g></g></svg>