<svg width="907.651" height="438.803" viewBox="13.5824 20.591 680.738 329.102" xmlns="http://www.w3.org/2000/svg" xmlns:xlink="http://www.w3.org/1999/xlink" overflow="hidden"><g transform="matrix(1 0 0 -1 0 768)"><g stroke="#000000" stroke-width="1" stroke-linecap="round" stroke-linejoin="round" stroke-miterlimit="3" fill="none" fill-rule="evenodd" font-style="normal" font-weight="400" letter-spacing="0" baseline-shift="0"><g transform="matrix(0.6 0 0 0.6 0 768.2)"><g font-family="CalibriUnicode" font-size="13" transform="scale(1.19902 -1.19962)"><path d="M405 48C405 43 405 43 410 43L611 43C616 43 616 43 616 48L616 171C616 176 616 176 611 176L410 176C405 176 405 176 405 171L405 48" stroke="none" fill="#DFDFDF"/><path d="M402 45C402 40 402 40 407 40L608 40C613 40 613 40 613 45L613 168C613 173 613 173 608 173L407 173C402 173 402 173 402 168L402 45" stroke="none" stroke-width="2" fill="#CCFFFF"/><path d="M402 45C402 40 402 40 407 40L608 40C613 40 613 40 613 45L613 168C613 173 613 173 608 173L407 173C402 173 402 173 402 168L402 45M402 45C402 40 402 40 407 40L608 40C613 40 613 40 613 45L613 168C613 173 613 173 608 173L407 173C402 173 402 173 402 168L402 45" stroke-width="2"/><rect x="402" y="40" width="211" height="133" stroke-width="2"/><text stroke="none" fill="#000000" font-style="italic" transform="translate(557 43)"><tspan x="0" y="13" dx="0">OWobject</tspan></text><text stroke="none" fill="#000000" transform="translate(471 64)"><tspan x="0" y="13" dx="0">«</tspan><tspan x="7" y="13" dx="0">O</tspan><tspan x="16" y="13" dx="0">b</tspan><tspan x="23" y="13" dx="0">j</tspan><tspan x="26" y="13" dx="0">e</tspan><tspan x="33" y="13" dx="0">c</tspan><tspan x="38" y="13" dx="0 0">tt</tspan><tspan x="47" y="13" dx="0">y</tspan><tspan x="53" y="13" dx="0">p</tspan><tspan x="59" y="13" dx="0">e</tspan><tspan x="66" y="13" dx="0">»</tspan></text><text stroke="none" fill="#000000" font-weight="700" transform="translate(445 79)"><tspan x="0" y="13" dx="0">Regel::Juridische regel</tspan></text><path d="M402 99 613 99" stroke-width="2"/><text stroke="none" fill="#000000" transform="translate(415 107)"><tspan x="0" y="13" dx="0">«</tspan><tspan x="7" y="13" dx="0">A</tspan><tspan x="14" y="13" dx="0 0">tt</tspan><tspan x="23" y="13" dx="0">r</tspan><tspan x="27" y="13" dx="0">i</tspan><tspan x="30" y="13" dx="0">b</tspan><tspan x="37" y="13" dx="0">u</tspan><tspan x="43" y="13" dx="0">u</tspan><tspan x="50" y="13" dx="0">t</tspan><tspan x="54" y="13" dx="0">s</tspan><tspan x="60" y="13" dx="0">o</tspan><tspan x="67" y="13" dx="0">o</tspan><tspan x="73" y="13" dx="0">r</tspan><tspan x="78" y="13" dx="0">t</tspan><tspan x="82" y="13" dx="0">»</tspan></text><text stroke="none" fill="#2F4F4F" transform="translate(407 122)"><tspan x="0" y="13" dx="0">+</tspan></text><text stroke="none" fill="#2F4F4F" transform="translate(428 122)"><tspan x="0" y="13" dx="0">i</tspan><tspan x="3" y="13" dx="0">d</tspan><tspan x="10" y="13" dx="0">e</tspan><tspan x="17" y="13" dx="0">a</tspan><tspan x="23" y="13" dx="0">l</tspan><tspan x="27" y="13" dx="0">i</tspan><tspan x="30" y="13" dx="0">s</tspan><tspan x="36" y="13" dx="0">a</tspan><tspan x="43" y="13" dx="0 0">ti</tspan><tspan x="50" y="13" dx="0">e</tspan><tspan x="57" y="13" dx="0">:</tspan><tspan x="60" y="13" dx="0"> </tspan><tspan x="63" y="13" dx="0">I</tspan><tspan x="67" y="13" dx="0">d</tspan><tspan x="73" y="13" dx="0">e</tspan><tspan x="80" y="13" dx="0">a</tspan><tspan x="87" y="13" dx="0">l</tspan><tspan x="90" y="13" dx="0">i</tspan><tspan x="93" y="13" dx="0">s</tspan><tspan x="99" y="13" dx="0">a</tspan><tspan x="106" y="13" dx="0 0">ti</tspan><tspan x="113" y="13" dx="0">e</tspan></text><text stroke="none" fill="#2F4F4F" transform="translate(407 137)"><tspan x="0" y="13" dx="0">+</tspan></text><text stroke="none" fill="#2F4F4F" transform="translate(428 137)"><tspan x="0" y="13" dx="0">thema: Thema [0..*]</tspan></text><path d="M754 48C754 43 754 43 759 43L949 43C954 43 954 43 954 48L954 154C954 159 954 159 949 159L759 159C754 159 754 159 754 154L754 48" stroke="none" fill="#DFDFDF"/><path d="M751 45C751 40 751 40 756 40L946 40C951 40 951 40 951 45L951 151C951 156 951 156 946 156L756 156C751 156 751 156 751 151L751 45" stroke="none" fill="#FFE4E1"/><path d="M751 45C751 40 751 40 756 40L946 40C951 40 951 40 951 45L951 151C951 156 951 156 946 156L756 156C751 156 751 156 751 151L751 45M751 45C751 40 751 40 756 40L946 40C951 40 951 40 951 45L951 151C951 156 951 156 946 156L756 156C751 156 751 156 751 151L751 45"/><rect x="751" y="40" width="200" height="116"/><text stroke="none" fill="#000000" font-style="italic" transform="translate(895 43)"><tspan x="0" y="13" dx="0">OWobject</tspan></text><text stroke="none" fill="#000000" transform="translate(815 64)"><tspan x="0" y="13" dx="0">«</tspan><tspan x="7" y="13" dx="0">O</tspan><tspan x="16" y="13" dx="0">b</tspan><tspan x="23" y="13" dx="0">j</tspan><tspan x="26" y="13" dx="0">e</tspan><tspan x="33" y="13" dx="0">c</tspan><tspan x="38" y="13" dx="0 0">tt</tspan><tspan x="47" y="13" dx="0">y</tspan><tspan x="53" y="13" dx="0">p</tspan><tspan x="59" y="13" dx="0">e</tspan><tspan x="66" y="13" dx="0">»</tspan></text><text stroke="none" fill="#000000" font-style="italic" font-weight="700" transform="translate(808 79)"><tspan x="0" y="13" dx="0">L</tspan><tspan x="6" y="13" dx="0">o</tspan><tspan x="13" y="13" dx="0">c</tspan><tspan x="18" y="13" dx="0">a</tspan><tspan x="25" y="13" dx="0 0">ti</tspan><tspan x="33" y="13" dx="0">e</tspan><tspan x="40" y="13" dx="0">:</tspan><tspan x="43" y="13" dx="0">:</tspan><tspan x="47" y="13" dx="0">L</tspan><tspan x="53" y="13" dx="0">o</tspan><tspan x="59" y="13" dx="0">c</tspan><tspan x="65" y="13" dx="0">a</tspan><tspan x="72" y="13" dx="0 0">ti</tspan><tspan x="80" y="13" dx="0">e</tspan></text><path d="M751 99 951 99"/><text stroke="none" fill="#000000" transform="translate(764 107)"><tspan x="0" y="13" dx="0">«</tspan><tspan x="7" y="13" dx="0">A</tspan><tspan x="14" y="13" dx="0 0">tt</tspan><tspan x="23" y="13" dx="0">r</tspan><tspan x="27" y="13" dx="0">i</tspan><tspan x="30" y="13" dx="0">b</tspan><tspan x="37" y="13" dx="0">u</tspan><tspan x="43" y="13" dx="0">u</tspan><tspan x="50" y="13" dx="0">t</tspan><tspan x="54" y="13" dx="0">s</tspan><tspan x="60" y="13" dx="0">o</tspan><tspan x="67" y="13" dx="0">o</tspan><tspan x="73" y="13" dx="0">r</tspan><tspan x="78" y="13" dx="0">t</tspan><tspan x="82" y="13" dx="0">»</tspan></text><text stroke="none" fill="#2F4F4F" transform="translate(756 122)"><tspan x="0" y="13" dx="0">+</tspan></text><text stroke="none" fill="#2F4F4F" transform="translate(777 122)"><tspan x="0" y="13" dx="0">i</tspan><tspan x="3" y="13" dx="0">d</tspan><tspan x="10" y="13" dx="0">e</tspan><tspan x="17" y="13" dx="0">n</tspan><tspan x="23" y="13" dx="0 0">ti</tspan><tspan x="31" y="13" dx="0 0">fi</tspan><tspan x="38" y="13" dx="0">c</tspan><tspan x="44" y="13" dx="0">a</tspan><tspan x="51" y="13" dx="0 0">ti</tspan><tspan x="58" y="13" dx="0">e</tspan><tspan x="65" y="13" dx="0">:</tspan><tspan x="68" y="13" dx="0"> </tspan><tspan x="72" y="13" dx="0">N</tspan><tspan x="80" y="13" dx="0">E</tspan><tspan x="87" y="13" dx="0">N</tspan><tspan x="95" y="13" dx="0">3</tspan><tspan x="102" y="13" dx="0">6</tspan><tspan x="108" y="13" dx="0">1</tspan><tspan x="115" y="13" dx="0">0</tspan><tspan x="122" y="13" dx="0">I</tspan><tspan x="125" y="13" dx="0">D</tspan><tspan x="133" y="13" dx="0"> </tspan><tspan x="137" y="13" dx="0">{</tspan><tspan x="141" y="13" dx="0">i</tspan><tspan x="144" y="13" dx="0">d</tspan><tspan x="151" y="13" dx="0">}</tspan></text><text stroke="none" fill="#2F4F4F" transform="translate(756 137)"><tspan x="0" y="13" dx="0">+</tspan></text><text stroke="none" fill="#2F4F4F" transform="translate(777 137)"><tspan x="0" y="13" dx="0">noemer: Characterstring [0..1]</tspan></text><path d="M33 348C33 343 33 343 38 343L243 343C248 343 248 343 248 348L248 470C248 475 248 475 243 475L38 475C33 475 33 475 33 470L33 348" stroke="none" fill="#DFDFDF"/><path d="M30 345C30 340 30 340 35 340L240 340C245 340 245 340 245 345L245 467C245 472 245 472 240 472L35 472C30 472 30 472 30 467L30 345" stroke="none" stroke-width="2" fill="#CCFFCC"/><path d="M30 345C30 340 30 340 35 340L240 340C245 340 245 340 245 345L245 467C245 472 245 472 240 472L35 472C30 472 30 472 30 467L30 345M30 345C30 340 30 340 35 340L240 340C245 340 245 340 245 345L245 467C245 472 245 472 240 472L35 472C30 472 30 472 30 467L30 345" stroke-width="2"/><rect x="30" y="340" width="215" height="132" stroke-width="2"/><text stroke="none" fill="#000000" font-style="italic" transform="translate(189 343)"><tspan x="0" y="13" dx="0">OWobject</tspan></text><text stroke="none" fill="#000000" transform="translate(101 364)"><tspan x="0" y="13" dx="0">«</tspan><tspan x="7" y="13" dx="0">O</tspan><tspan x="16" y="13" dx="0">b</tspan><tspan x="23" y="13" dx="0">j</tspan><tspan x="26" y="13" dx="0">e</tspan><tspan x="33" y="13" dx="0">c</tspan><tspan x="38" y="13" dx="0 0">tt</tspan><tspan x="47" y="13" dx="0">y</tspan><tspan x="53" y="13" dx="0">p</tspan><tspan x="59" y="13" dx="0">e</tspan><tspan x="66" y="13" dx="0">»</tspan></text><text stroke="none" fill="#000000" font-style="italic" font-weight="700" transform="translate(73 379)"><tspan x="0" y="13" dx="0">R</tspan><tspan x="8" y="13" dx="0">e</tspan><tspan x="14" y="13" dx="0">g</tspan><tspan x="21" y="13" dx="0">e</tspan><tspan x="28" y="13" dx="0">l</tspan><tspan x="31" y="13" dx="0">s</tspan><tspan x="36" y="13" dx="0">O</tspan><tspan x="45" y="13" dx="0">p</tspan><tspan x="52" y="13" dx="0">L</tspan><tspan x="58" y="13" dx="0">o</tspan><tspan x="64" y="13" dx="0">c</tspan><tspan x="70" y="13" dx="0">a</tspan><tspan x="77" y="13" dx="0 0">ti</tspan><tspan x="85" y="13" dx="0">e</tspan><tspan x="92" y="13" dx="0">:</tspan><tspan x="95" y="13" dx="0">:</tspan><tspan x="98" y="13" dx="0">N</tspan><tspan x="108" y="13" dx="0">o</tspan><tspan x="114" y="13" dx="0">r</tspan><tspan x="119" y="13" dx="0">m</tspan></text><path d="M30 399 245 399" stroke-width="2"/><text stroke="none" fill="#000000" transform="translate(43 407)"><tspan x="0" y="13" dx="0">«</tspan><tspan x="7" y="13" dx="0">A</tspan><tspan x="14" y="13" dx="0 0">tt</tspan><tspan x="23" y="13" dx="0">r</tspan><tspan x="27" y="13" dx="0">i</tspan><tspan x="30" y="13" dx="0">b</tspan><tspan x="37" y="13" dx="0">u</tspan><tspan x="43" y="13" dx="0">u</tspan><tspan x="50" y="13" dx="0">t</tspan><tspan x="54" y="13" dx="0">s</tspan><tspan x="60" y="13" dx="0">o</tspan><tspan x="67" y="13" dx="0">o</tspan><tspan x="73" y="13" dx="0">r</tspan><tspan x="78" y="13" dx="0">t</tspan><tspan x="82" y="13" dx="0">»</tspan></text><text stroke="none" fill="#2F4F4F" transform="translate(35 422)"><tspan x="0" y="13" dx="0">+</tspan></text><text stroke="none" fill="#2F4F4F" transform="translate(56 422)"><tspan x="0" y="13" dx="0">i</tspan><tspan x="3" y="13" dx="0">d</tspan><tspan x="10" y="13" dx="0">e</tspan><tspan x="17" y="13" dx="0">n</tspan><tspan x="23" y="13" dx="0 0">ti</tspan><tspan x="31" y="13" dx="0 0">fi</tspan><tspan x="38" y="13" dx="0">c</tspan><tspan x="44" y="13" dx="0">a</tspan><tspan x="51" y="13" dx="0 0">ti</tspan><tspan x="58" y="13" dx="0">e</tspan><tspan x="65" y="13" dx="0">:</tspan><tspan x="68" y="13" dx="0"> </tspan><tspan x="72" y="13" dx="0">N</tspan><tspan x="80" y="13" dx="0">E</tspan><tspan x="87" y="13" dx="0">N</tspan><tspan x="95" y="13" dx="0">3</tspan><tspan x="102" y="13" dx="0">6</tspan><tspan x="108" y="13" dx="0">1</tspan><tspan x="115" y="13" dx="0">0</tspan><tspan x="122" y="13" dx="0">I</tspan><tspan x="125" y="13" dx="0">D</tspan><tspan x="133" y="13" dx="0"> </tspan><tspan x="137" y="13" dx="0">{</tspan><tspan x="141" y="13" dx="0">i</tspan><tspan x="144" y="13" dx="0">d</tspan><tspan x="151" y="13" dx="0">}</tspan></text><text stroke="none" fill="#000000" transform="translate(43 441)"><tspan x="0" y="13" dx="0">«Gegevensgroep»</tspan></text><text stroke="none" fill="#2F4F4F" transform="translate(35 456)"><tspan x="0" y="13" dx="0">+</tspan></text><text stroke="none" fill="#2F4F4F" transform="translate(56 456)"><tspan x="0" y="13" dx="0">normwaarde: Normwaarde [1..*]</tspan></text><path d="M682 344C682 339 682 339 687 339L949 339C954 339 954 339 954 344L954 470C954 475 954 475 949 475L687 475C682 475 682 475 682 470L682 344" stroke="none" fill="#DFDFDF"/><path d="M679 341C679 336 679 336 684 336L946 336C951 336 951 336 951 341L951 467C951 472 951 472 946 472L684 472C679 472 679 472 679 467L679 341" stroke="none" stroke-width="2" fill="#CCFFCC"/><path d="M679 341C679 336 679 336 684 336L946 336C951 336 951 336 951 341L951 467C951 472 951 472 946 472L684 472C679 472 679 472 679 467L679 341M679 341C679 336 679 336 684 336L946 336C951 336 951 336 951 341L951 467C951 472 951 472 946 472L684 472C679 472 679 472 679 467L679 341" stroke-width="2"/><rect x="679" y="336" width="272" height="136" stroke-width="2"/><text stroke="none" fill="#000000" transform="translate(756 342)"><tspan x="0" y="13" dx="0">«Gegevensgroeptype»</tspan></text><text stroke="none" fill="#000000" font-weight="700" transform="translate(728 357)"><tspan x="0" y="13" dx="0">R</tspan><tspan x="8" y="13" dx="0">e</tspan><tspan x="14" y="13" dx="0">g</tspan><tspan x="21" y="13" dx="0">e</tspan><tspan x="28" y="13" dx="0">l</tspan><tspan x="31" y="13" dx="0">s</tspan><tspan x="36" y="13" dx="0">O</tspan><tspan x="45" y="13" dx="0">p</tspan><tspan x="53" y="13" dx="0">L</tspan><tspan x="58" y="13" dx="0">o</tspan><tspan x="66" y="13" dx="0">c</tspan><tspan x="72" y="13" dx="0">a</tspan><tspan x="78" y="13" dx="0 0">ti</tspan><tspan x="87" y="13" dx="0">e</tspan><tspan x="93" y="13" dx="0">:</tspan><tspan x="97" y="13" dx="0">:</tspan><tspan x="100" y="13" dx="0">N</tspan><tspan x="109" y="13" dx="0">o</tspan><tspan x="117" y="13" dx="0">r</tspan><tspan x="122" y="13" dx="0">m</tspan><tspan x="133" y="13" dx="0">w</tspan><tspan x="143" y="13" dx="0">a</tspan><tspan x="149" y="13" dx="0">a</tspan><tspan x="156" y="13" dx="0">r</tspan><tspan x="161" y="13" dx="0">d</tspan><tspan x="168" y="13" dx="0">e</tspan></text><path d="M679 377 951 377" stroke-width="2"/><text stroke="none" fill="#000000" transform="translate(692 385)"><tspan x="0" y="13" dx="0">«</tspan><tspan x="7" y="13" dx="0">A</tspan><tspan x="14" y="13" dx="0 0">tt</tspan><tspan x="23" y="13" dx="0">r</tspan><tspan x="27" y="13" dx="0">i</tspan><tspan x="30" y="13" dx="0">b</tspan><tspan x="37" y="13" dx="0">u</tspan><tspan x="43" y="13" dx="0">u</tspan><tspan x="50" y="13" dx="0">t</tspan><tspan x="54" y="13" dx="0">s</tspan><tspan x="60" y="13" dx="0">o</tspan><tspan x="67" y="13" dx="0">o</tspan><tspan x="73" y="13" dx="0">r</tspan><tspan x="78" y="13" dx="0">t</tspan><tspan x="82" y="13" dx="0">»</tspan></text><text stroke="none" fill="#2F4F4F" transform="translate(684 400)"><tspan x="0" y="13" dx="0">+</tspan></text><text stroke="none" fill="#2F4F4F" transform="translate(705 400)"><tspan x="0" y="13" dx="0">k</tspan><tspan x="6" y="13" dx="0">w</tspan><tspan x="15" y="13" dx="0">a</tspan><tspan x="22" y="13" dx="0">l</tspan><tspan x="25" y="13" dx="0">i</tspan><tspan x="28" y="13" dx="0">t</tspan><tspan x="33" y="13" dx="0">a</tspan><tspan x="39" y="13" dx="0 0">ti</tspan><tspan x="47" y="13" dx="0">e</tspan><tspan x="53" y="13" dx="0">v</tspan><tspan x="59" y="13" dx="0">e</tspan><tspan x="66" y="13" dx="0">W</tspan><tspan x="78" y="13" dx="0">a</tspan><tspan x="84" y="13" dx="0">a</tspan><tspan x="91" y="13" dx="0">r</tspan><tspan x="95" y="13" dx="0">d</tspan><tspan x="102" y="13" dx="0">e</tspan><tspan x="108" y="13" dx="0">:</tspan><tspan x="112" y="13" dx="0"> </tspan><tspan x="115" y="13" dx="0">C</tspan><tspan x="123" y="13" dx="0">h</tspan><tspan x="129" y="13" dx="0">a</tspan><tspan x="136" y="13" dx="0">r</tspan><tspan x="140" y="13" dx="0">a</tspan><tspan x="147" y="13" dx="0">c</tspan><tspan x="153" y="13" dx="0">t</tspan><tspan x="157" y="13" dx="0">e</tspan><tspan x="163" y="13" dx="0">r</tspan><tspan x="168" y="13" dx="0">S</tspan><tspan x="173" y="13" dx="0">t</tspan><tspan x="178" y="13" dx="0">r</tspan><tspan x="182" y="13" dx="0">i</tspan><tspan x="185" y="13" dx="0">n</tspan><tspan x="192" y="13" dx="0">g</tspan><tspan x="198" y="13" dx="0"> </tspan><tspan x="202" y="13" dx="0">[</tspan><tspan x="206" y="13" dx="0">0</tspan><tspan x="213" y="13" dx="0">.</tspan><tspan x="216" y="13" dx="0">.</tspan><tspan x="219" y="13" dx="0">1</tspan><tspan x="226" y="13" dx="0">]</tspan></text><text stroke="none" fill="#2F4F4F" transform="translate(684 415)"><tspan x="0" y="13" dx="0">+</tspan></text><text stroke="none" fill="#2F4F4F" transform="translate(705 415)"><tspan x="0" y="13" dx="0">k</tspan><tspan x="6" y="13" dx="0">w</tspan><tspan x="15" y="13" dx="0">a</tspan><tspan x="22" y="13" dx="0">n</tspan><tspan x="28" y="13" dx="0 0">ti</tspan><tspan x="36" y="13" dx="0">t</tspan><tspan x="40" y="13" dx="0">a</tspan><tspan x="47" y="13" dx="0 0">ti</tspan><tspan x="54" y="13" dx="0">e</tspan><tspan x="61" y="13" dx="0">v</tspan><tspan x="67" y="13" dx="0">e</tspan><tspan x="73" y="13" dx="0">W</tspan><tspan x="85" y="13" dx="0">a</tspan><tspan x="92" y="13" dx="0">a</tspan><tspan x="98" y="13" dx="0">r</tspan><tspan x="103" y="13" dx="0">d</tspan><tspan x="109" y="13" dx="0">e</tspan><tspan x="116" y="13" dx="0">:</tspan><tspan x="119" y="13" dx="0"> </tspan><tspan x="123" y="13" dx="0">W</tspan><tspan x="134" y="13" dx="0">a</tspan><tspan x="141" y="13" dx="0">a</tspan><tspan x="148" y="13" dx="0">r</tspan><tspan x="152" y="13" dx="0">d</tspan><tspan x="158" y="13" dx="0">e</tspan><tspan x="165" y="13" dx="0">E</tspan><tspan x="172" y="13" dx="0">e</tspan><tspan x="178" y="13" dx="0">n</tspan><tspan x="185" y="13" dx="0">h</tspan><tspan x="192" y="13" dx="0">e</tspan><tspan x="198" y="13" dx="0">i</tspan><tspan x="202" y="13" dx="0">d</tspan><tspan x="209" y="13" dx="0"> </tspan><tspan x="212" y="13" dx="0">[</tspan><tspan x="216" y="13" dx="0">0</tspan><tspan x="223" y="13" dx="0">.</tspan><tspan x="226" y="13" dx="0">.</tspan><tspan x="229" y="13" dx="0">1</tspan><tspan x="236" y="13" dx="0">]</tspan></text><path d="M679 434 951 434" stroke-width="2"/><text stroke="none" fill="#000000" font-style="italic" transform="translate(786 438)"><tspan x="0" y="13" dx="0">constraints</tspan></text><text stroke="none" fill="#000000" transform="translate(684 453)"><tspan x="0" y="13" dx="0">{</tspan><tspan x="4" y="13" dx="0">w</tspan><tspan x="13" y="13" dx="0">a</tspan><tspan x="20" y="13" dx="0">a</tspan><tspan x="27" y="13" dx="0">r</tspan><tspan x="31" y="13" dx="0">d</tspan><tspan x="38" y="13" dx="0">e</tspan><tspan x="44" y="13" dx="0"> </tspan><tspan x="48" y="13" dx="0">i</tspan><tspan x="51" y="13" dx="0">s</tspan><tspan x="57" y="13" dx="0"> </tspan><tspan x="60" y="13" dx="0">k</tspan><tspan x="66" y="13" dx="0">w</tspan><tspan x="75" y="13" dx="0">a</tspan><tspan x="82" y="13" dx="0">l</tspan><tspan x="85" y="13" dx="0">i</tspan><tspan x="88" y="13" dx="0">t</tspan><tspan x="93" y="13" dx="0">a</tspan><tspan x="99" y="13" dx="0 0">ti</tspan><tspan x="107" y="13" dx="0">e</tspan><tspan x="113" y="13" dx="0">f</tspan><tspan x="118" y="13" dx="0"> </tspan><tspan x="121" y="13" dx="0">o</tspan><tspan x="128" y="13" dx="0">f</tspan><tspan x="132" y="13" dx="0"> </tspan><tspan x="135" y="13" dx="0">k</tspan><tspan x="141" y="13" dx="0">w</tspan><tspan x="150" y="13" dx="0">a</tspan><tspan x="157" y="13" dx="0">n</tspan><tspan x="163" y="13" dx="0 0">ti</tspan><tspan x="171" y="13" dx="0">t</tspan><tspan x="175" y="13" dx="0">a</tspan><tspan x="182" y="13" dx="0 0">ti</tspan><tspan x="189" y="13" dx="0">e</tspan><tspan x="196" y="13" dx="0">f</tspan><tspan x="200" y="13" dx="0">}</tspan></text><path d="M835 224C835 219 835 219 840 219L949 219C954 219 954 219 954 224L954 302C954 307 954 307 949 307L840 307C835 307 835 307 835 302L835 224" stroke="none" fill="#DFDFDF"/><path d="M832 221C832 216 832 216 837 216L946 216C951 216 951 216 951 221L951 299C951 304 951 304 946 304L837 304C832 304 832 304 832 299L832 221" stroke="none" fill="#FBF9C6"/><path d="M832 221C832 216 832 216 837 216L946 216C951 216 951 216 951 221L951 299C951 304 951 304 946 304L837 304C832 304 832 304 832 299L832 221M832 221C832 216 832 216 837 216L946 216C951 216 951 216 951 221L951 299C951 304 951 304 946 304L837 304C832 304 832 304 832 299L832 221"/><rect x="832" y="216" width="119" height="88"/><text stroke="none" fill="#000000" font-size="8" transform="translate(847 222)"><tspan x="0" y="8" dx="0">«Gestructureerd datatype»</tspan></text><text stroke="none" fill="#000000" font-weight="700" font-size="8" transform="translate(865 232)"><tspan x="0" y="8" dx="0">WaardeEenheid</tspan></text><path d="M832 247 951 247"/><text stroke="none" fill="#000000" font-size="8" transform="translate(843 255)"><tspan x="0" y="8" dx="0">«Data element»</tspan></text><text stroke="none" fill="#2F4F4F" font-size="8" transform="translate(837 265)"><tspan x="0" y="8" dx="0">+</tspan></text><text stroke="none" fill="#2F4F4F" font-size="8" transform="translate(851 265)"><tspan x="0" y="8" dx="0">waarde: Real</tspan></text><text stroke="none" fill="#2F4F4F" font-size="8" transform="translate(837 275)"><tspan x="0" y="8" dx="0">+</tspan></text><text stroke="none" fill="#2F4F4F" font-size="8" transform="translate(851 275)"><tspan x="0" y="8" dx="0">eenheid: Eenheid</tspan></text><text stroke="none" fill="#000000" font-style="italic" font-size="8" transform="translate(846 310)"><tspan x="0" y="8" dx="0">(from Datatypen Algemeen)</tspan></text><path d="M343 381C343 376 343 376 348 376L555 376C560 376 560 376 560 381L560 470C560 475 560 475 555 475L348 475C343 475 343 475 343 470L343 381" stroke="none" fill="#DFDFDF"/><path d="M340 378C340 373 340 373 345 373L552 373C557 373 557 373 557 378L557 467C557 472 557 472 552 472L345 472C340 472 340 472 340 467L340 378" stroke="none" stroke-width="2" fill="#CCFFCC"/><path d="M340 378C340 373 340 373 345 373L552 373C557 373 557 373 557 378L557 467C557 472 557 472 552 472L345 472C340 472 340 472 340 467L340 378M340 378C340 373 340 373 345 373L552 373C557 373 557 373 557 378L557 467C557 472 557 472 552 472L345 472C340 472 340 472 340 467L340 378" stroke-width="2"/><rect x="340" y="373" width="217" height="99" stroke-width="2"/><text stroke="none" fill="#000000" transform="translate(412 379)"><tspan x="0" y="13" dx="0">«</tspan><tspan x="7" y="13" dx="0">O</tspan><tspan x="16" y="13" dx="0">b</tspan><tspan x="23" y="13" dx="0">j</tspan><tspan x="26" y="13" dx="0">e</tspan><tspan x="33" y="13" dx="0">c</tspan><tspan x="38" y="13" dx="0 0">tt</tspan><tspan x="47" y="13" dx="0">y</tspan><tspan x="53" y="13" dx="0">p</tspan><tspan x="59" y="13" dx="0">e</tspan><tspan x="66" y="13" dx="0">»</tspan></text><text stroke="none" fill="#000000" font-weight="700" transform="translate(352 394)"><tspan x="0" y="13" dx="0">R</tspan><tspan x="8" y="13" dx="0">e</tspan><tspan x="14" y="13" dx="0">g</tspan><tspan x="21" y="13" dx="0">e</tspan><tspan x="28" y="13" dx="0">l</tspan><tspan x="31" y="13" dx="0">s</tspan><tspan x="36" y="13" dx="0">O</tspan><tspan x="45" y="13" dx="0">p</tspan><tspan x="53" y="13" dx="0">L</tspan><tspan x="58" y="13" dx="0">o</tspan><tspan x="66" y="13" dx="0">c</tspan><tspan x="72" y="13" dx="0">a</tspan><tspan x="78" y="13" dx="0 0">ti</tspan><tspan x="87" y="13" dx="0">e</tspan><tspan x="93" y="13" dx="0">:</tspan><tspan x="97" y="13" dx="0">:</tspan><tspan x="100" y="13" dx="0">O</tspan><tspan x="109" y="13" dx="0">m</tspan><tspan x="120" y="13" dx="0">g</tspan><tspan x="127" y="13" dx="0">e</tspan><tspan x="133" y="13" dx="0">v</tspan><tspan x="140" y="13" dx="0">i</tspan><tspan x="143" y="13" dx="0">n</tspan><tspan x="151" y="13" dx="0">g</tspan><tspan x="158" y="13" dx="0">s</tspan><tspan x="163" y="13" dx="0">n</tspan><tspan x="170" y="13" dx="0">o</tspan><tspan x="178" y="13" dx="0">r</tspan><tspan x="183" y="13" dx="0">m</tspan></text><path d="M340 414 557 414" stroke-width="2"/><text stroke="none" fill="#000000" transform="translate(353 422)"><tspan x="0" y="13" dx="0">«</tspan><tspan x="7" y="13" dx="0">A</tspan><tspan x="14" y="13" dx="0 0">tt</tspan><tspan x="23" y="13" dx="0">r</tspan><tspan x="27" y="13" dx="0">i</tspan><tspan x="30" y="13" dx="0">b</tspan><tspan x="37" y="13" dx="0">u</tspan><tspan x="43" y="13" dx="0">u</tspan><tspan x="50" y="13" dx="0">t</tspan><tspan x="54" y="13" dx="0">s</tspan><tspan x="60" y="13" dx="0">o</tspan><tspan x="67" y="13" dx="0">o</tspan><tspan x="73" y="13" dx="0">r</tspan><tspan x="78" y="13" dx="0">t</tspan><tspan x="82" y="13" dx="0">»</tspan></text><text stroke="none" fill="#2F4F4F" transform="translate(345 437)"><tspan x="0" y="13" dx="0">+</tspan></text><text stroke="none" fill="#2F4F4F" transform="translate(366 437)"><tspan x="0" y="13" dx="0">naam: CharacterString</tspan></text><text stroke="none" fill="#2F4F4F" transform="translate(345 452)"><tspan x="0" y="13" dx="0">+</tspan></text><text stroke="none" fill="#2F4F4F" transform="translate(366 452)"><tspan x="0" y="13" dx="0">groep: Omgevingsnormgroep</tspan></text><path d="M542 242C542 237 542 237 547 237L676 237C681 237 681 237 681 242L681 302C681 307 681 307 676 307L547 307C542 307 542 307 542 302L542 242" stroke="none" fill="#DFDFDF"/><path d="M539 239C539 234 539 234 544 234L673 234C678 234 678 234 678 239L678 299C678 304 678 304 673 304L544 304C539 304 539 304 539 299L539 239" stroke="none" fill="#CCFFFF"/><path d="M539 239C539 234 539 234 544 234L673 234C678 234 678 234 678 239L678 299C678 304 678 304 673 304L544 304C539 304 539 304 539 299L539 239M539 239C539 234 539 234 544 234L673 234C678 234 678 234 678 239L678 299C678 304 678 304 673 304L544 304C539 304 539 304 539 299L539 239"/><rect x="539" y="234" width="139" height="70"/><text stroke="none" fill="#000000" transform="translate(572 240)"><tspan x="0" y="13" dx="0">«</tspan><tspan x="7" y="13" dx="0">O</tspan><tspan x="16" y="13" dx="0">b</tspan><tspan x="23" y="13" dx="0">j</tspan><tspan x="26" y="13" dx="0">e</tspan><tspan x="33" y="13" dx="0">c</tspan><tspan x="38" y="13" dx="0 0">tt</tspan><tspan x="47" y="13" dx="0">y</tspan><tspan x="53" y="13" dx="0">p</tspan><tspan x="59" y="13" dx="0">e</tspan><tspan x="66" y="13" dx="0">»</tspan></text><text stroke="none" fill="#000000" font-weight="700" transform="translate(549 255)"><tspan x="0" y="13" dx="0">R</tspan><tspan x="8" y="13" dx="0">e</tspan><tspan x="14" y="13" dx="0">g</tspan><tspan x="21" y="13" dx="0">e</tspan><tspan x="28" y="13" dx="0">l</tspan><tspan x="31" y="13" dx="0">:</tspan><tspan x="34" y="13" dx="0">:</tspan><tspan x="38" y="13" dx="0">I</tspan><tspan x="41" y="13" dx="0">n</tspan><tspan x="48" y="13" dx="0">s</tspan><tspan x="53" y="13" dx="0">t</tspan><tspan x="58" y="13" dx="0">r</tspan><tspan x="63" y="13" dx="0">u</tspan><tspan x="71" y="13" dx="0">c</tspan><tspan x="77" y="13" dx="0 0">ti</tspan><tspan x="85" y="13" dx="0">e</tspan><tspan x="92" y="13" dx="0">r</tspan><tspan x="97" y="13" dx="0">e</tspan><tspan x="103" y="13" dx="0">g</tspan><tspan x="110" y="13" dx="0">e</tspan><tspan x="117" y="13" dx="0">l</tspan></text><path d="M299 243C299 238 299 238 304 238L494 238C499 238 499 238 499 243L499 301C499 306 499 306 494 306L304 306C299 306 299 306 299 301L299 243" stroke="none" fill="#DFDFDF"/><path d="M296 240C296 235 296 235 301 235L491 235C496 235 496 235 496 240L496 298C496 303 496 303 491 303L301 303C296 303 296 303 296 298L296 240" stroke="none" fill="#CCFFFF"/><path d="M296 240C296 235 296 235 301 235L491 235C496 235 496 235 496 240L496 298C496 303 496 303 491 303L301 303C296 303 296 303 296 298L296 240M296 240C296 235 296 235 301 235L491 235C496 235 496 235 496 240L496 298C496 303 496 303 491 303L301 303C296 303 296 303 296 298L296 240"/><rect x="296" y="235" width="200" height="68"/><text stroke="none" fill="#000000" transform="translate(360 241)"><tspan x="0" y="13" dx="0">«</tspan><tspan x="7" y="13" dx="0">O</tspan><tspan x="16" y="13" dx="0">b</tspan><tspan x="23" y="13" dx="0">j</tspan><tspan x="26" y="13" dx="0">e</tspan><tspan x="33" y="13" dx="0">c</tspan><tspan x="38" y="13" dx="0 0">tt</tspan><tspan x="47" y="13" dx="0">y</tspan><tspan x="53" y="13" dx="0">p</tspan><tspan x="59" y="13" dx="0">e</tspan><tspan x="66" y="13" dx="0">»</tspan></text><text stroke="none" fill="#000000" font-weight="700" transform="translate(320 256)"><tspan x="0" y="13" dx="0">Regel::Regel voor iedereen</tspan></text><path d="M392 304 392 373M392 373 386 358M392 373 398 358" stroke-width="2"/><path d="M617 305 617 422M617 422 558 422M558 422 573 416M558 422 573 428" stroke-width="2"/><path d="M615 87 751 87M751 87 736 93M751 87 736 81" stroke-width="2"/><path d="M606 234 606 203M606 203 506 203M506 203 506 174" stroke-width="2"/><path d="M512 190 500 190 506 174 512 190" stroke-width="2" fill="#F7DDB4"/><path d="M380 235 380 203M380 203 506 203" stroke-width="2"/><path d="M794 335 794 157M794 157 800 172M794 157 788 172" stroke-width="2"/><path d="M339 427 247 427" stroke-width="2"/><path d="M263 421 263 433 247 427 263 421" stroke-width="2" fill="#F7DDB4"/><g transform="matrix(1 0 0 -1 625 310)"><rect x="0" y="-10" width="13" height="10" stroke="none" fill="#FFFFFF"/></g><text stroke="none" fill="#000000" font-size="8" transform="translate(625 310)"><tspan x="0" y="8" dx="0">1..*</tspan></text><g transform="matrix(1 0 0 -1 562 437)"><rect x="0" y="-10" width="95" height="10" stroke="none" fill="#FFFFFF"/></g><text stroke="none" fill="#000000" font-size="8" transform="translate(562 437)"><tspan x="0" y="8" dx="0">+omgevingsnormaanduiding</tspan></text><g transform="matrix(1 0 0 -1 562 447)"><rect x="0" y="-10" width="39" height="10" stroke="none" fill="#FFFFFF"/></g><text stroke="none" fill="#000000" font-size="8" transform="translate(562 447)"><tspan x="0" y="8" dx="0">«</tspan><tspan x="4" y="8" dx="0">R</tspan><tspan x="8.25" y="8" dx="0">e</tspan><tspan x="12" y="8" dx="0">l</tspan><tspan x="14" y="8" dx="0">a</tspan><tspan x="17.5" y="8" dx="0 0">ti</tspan><tspan x="22.25" y="8" dx="0">e</tspan><tspan x="26" y="8" dx="0">r</tspan><tspan x="28.75" y="8" dx="0">o</tspan><tspan x="32.75" y="8" dx="0">l</tspan><tspan x="34.75" y="8" dx="0">»</tspan></text><g transform="matrix(1 0 0 -1 619 448)"><rect x="0" y="-10" width="13" height="10" stroke="none" fill="#FFFFFF"/></g><text stroke="none" fill="#000000" font-size="8" transform="translate(619 448)"><tspan x="0" y="8" dx="0">0..*</tspan></text><g transform="matrix(1 0 0 -1 797 321)"><rect x="0" y="-10" width="13" height="10" stroke="none" fill="#FFFFFF"/></g><text stroke="none" fill="#000000" font-size="8" transform="translate(797 321)"><tspan x="0" y="8" dx="0">0..*</tspan></text><g transform="matrix(1 0 0 -1 806 176)"><rect x="0" y="-10" width="63" height="10" stroke="none" fill="#FFFFFF"/></g><text stroke="none" fill="#000000" font-size="8" transform="translate(806 176)"><tspan x="0" y="8" dx="0">+</tspan><tspan x="4.25" y="8" dx="0">l</tspan><tspan x="6.25" y="8" dx="0">o</tspan><tspan x="10.75" y="8" dx="0">c</tspan><tspan x="14" y="8" dx="0">a</tspan><tspan x="17.75" y="8" dx="0 0">ti</tspan><tspan x="22.5" y="8" dx="0">e</tspan><tspan x="26.5" y="8" dx="0">a</tspan><tspan x="30.25" y="8" dx="0">a</tspan><tspan x="34" y="8" dx="0">n</tspan><tspan x="38.25" y="8" dx="0">d</tspan><tspan x="42.5" y="8" dx="0">u</tspan><tspan x="46.75" y="8" dx="0">i</tspan><tspan x="48.75" y="8" dx="0">d</tspan><tspan x="53" y="8" dx="0">i</tspan><tspan x="55" y="8" dx="0">n</tspan><tspan x="59.25" y="8" dx="0">g</tspan></text><g transform="matrix(1 0 0 -1 806 186)"><rect x="0" y="-10" width="39" height="10" stroke="none" fill="#FFFFFF"/></g><text stroke="none" fill="#000000" font-size="8" transform="translate(806 186)"><tspan x="0" y="8" dx="0">«</tspan><tspan x="4" y="8" dx="0">R</tspan><tspan x="8.25" y="8" dx="0">e</tspan><tspan x="12" y="8" dx="0">l</tspan><tspan x="14" y="8" dx="0">a</tspan><tspan x="17.5" y="8" dx="0 0">ti</tspan><tspan x="22.25" y="8" dx="0">e</tspan><tspan x="26" y="8" dx="0">r</tspan><tspan x="28.75" y="8" dx="0">o</tspan><tspan x="32.75" y="8" dx="0">l</tspan><tspan x="34.75" y="8" dx="0">»</tspan></text><g transform="matrix(1 0 0 -1 811 164)"><rect x="0" y="-10" width="13" height="10" stroke="none" fill="#FFFFFF"/></g><text stroke="none" fill="#000000" font-size="8" transform="translate(811 164)"><tspan x="0" y="8" dx="0">1..*</tspan></text><g transform="matrix(1 0 0 -1 395 328)"><rect x="0" y="-10" width="95" height="10" stroke="none" fill="#FFFFFF"/></g><text stroke="none" fill="#000000" font-size="8" transform="translate(395 328)"><tspan x="0" y="8" dx="0">+omgevingsnormaanduiding</tspan></text><g transform="matrix(1 0 0 -1 395 338)"><rect x="0" y="-10" width="39" height="10" stroke="none" fill="#FFFFFF"/></g><text stroke="none" fill="#000000" font-size="8" transform="translate(395 338)"><tspan x="0" y="8" dx="0">«</tspan><tspan x="4" y="8" dx="0">R</tspan><tspan x="8.25" y="8" dx="0">e</tspan><tspan x="12" y="8" dx="0">l</tspan><tspan x="14" y="8" dx="0">a</tspan><tspan x="17.5" y="8" dx="0 0">ti</tspan><tspan x="22.25" y="8" dx="0">e</tspan><tspan x="26" y="8" dx="0">r</tspan><tspan x="28.75" y="8" dx="0">o</tspan><tspan x="32.75" y="8" dx="0">l</tspan><tspan x="34.75" y="8" dx="0">»</tspan></text><g transform="matrix(1 0 0 -1 434 341)"><rect x="0" y="-10" width="13" height="10" stroke="none" fill="#FFFFFF"/></g><text stroke="none" fill="#000000" font-size="8" transform="translate(434 341)"><tspan x="0" y="8" dx="0">0..*</tspan></text><g transform="matrix(1 0 0 -1 615 91)"><rect x="0" y="-10" width="13" height="10" stroke="none" fill="#FFFFFF"/></g><text stroke="none" fill="#000000" font-size="8" transform="translate(615 91)"><tspan x="0" y="8" dx="0">1..*</tspan></text><g transform="matrix(1 0 0 -1 682 56)"><rect x="0" y="-10" width="63" height="10" stroke="none" fill="#FFFFFF"/></g><text stroke="none" fill="#000000" font-size="8" transform="translate(682 56)"><tspan x="0" y="8" dx="0">+</tspan><tspan x="4.25" y="8" dx="0">l</tspan><tspan x="6.25" y="8" dx="0">o</tspan><tspan x="10.75" y="8" dx="0">c</tspan><tspan x="14" y="8" dx="0">a</tspan><tspan x="17.75" y="8" dx="0 0">ti</tspan><tspan x="22.5" y="8" dx="0">e</tspan><tspan x="26.5" y="8" dx="0">a</tspan><tspan x="30.25" y="8" dx="0">a</tspan><tspan x="34" y="8" dx="0">n</tspan><tspan x="38.25" y="8" dx="0">d</tspan><tspan x="42.5" y="8" dx="0">u</tspan><tspan x="46.75" y="8" dx="0">i</tspan><tspan x="48.75" y="8" dx="0">d</tspan><tspan x="53" y="8" dx="0">i</tspan><tspan x="55" y="8" dx="0">n</tspan><tspan x="59.25" y="8" dx="0">g</tspan></text><g transform="matrix(1 0 0 -1 706 66)"><rect x="0" y="-10" width="39" height="10" stroke="none" fill="#FFFFFF"/></g><text stroke="none" fill="#000000" font-size="8" transform="translate(706 66)"><tspan x="0" y="8" dx="0">«</tspan><tspan x="4" y="8" dx="0">R</tspan><tspan x="8.25" y="8" dx="0">e</tspan><tspan x="12" y="8" dx="0">l</tspan><tspan x="14" y="8" dx="0">a</tspan><tspan x="17.5" y="8" dx="0 0">ti</tspan><tspan x="22.25" y="8" dx="0">e</tspan><tspan x="26" y="8" dx="0">r</tspan><tspan x="28.75" y="8" dx="0">o</tspan><tspan x="32.75" y="8" dx="0">l</tspan><tspan x="34.75" y="8" dx="0">»</tspan></text><g transform="matrix(1 0 0 -1 718 93)"><rect x="0" y="-10" width="13" height="10" stroke="none" fill="#FFFFFF"/></g><text stroke="none" fill="#000000" font-size="8" transform="translate(718 93)"><tspan x="0" y="8" dx="0">1..*</tspan></text></g></g></g></g></svg>