<svg width="782.306" height="556.708" viewBox="89.1608 133.829 586.73 417.531" xmlns="http://www.w3.org/2000/svg" xmlns:xlink="http://www.w3.org/1999/xlink" overflow="hidden"><g transform="matrix(1 0 0 -1 0 841)"><g stroke="#000000" stroke-linecap="round" stroke-linejoin="round" stroke-miterlimit="3" fill="none" fill-rule="evenodd" font-weight="400" baseline-shift="0"><g transform="matrix(0.6 0 0 0.6 0 841.65)"><g font-family="CalibriUnicode" font-size="13" transform="scale(1.19952 -1.19932)"><path d="M728 481C728 476 728 476 733 476L923 476C928 476 928 476 928 481L928 587C928 592 928 592 923 592L733 592C728 592 728 592 728 587L728 481" stroke="none" fill="#DFDFDF"/><path d="M725 478C725 473 725 473 730 473L920 473C925 473 925 473 925 478L925 584C925 589 925 589 920 589L730 589C725 589 725 589 725 584L725 478" stroke="none" fill="#FFE4E1"/><path d="M725 478C725 473 725 473 730 473L920 473C925 473 925 473 925 478L925 584C925 589 925 589 920 589L730 589C725 589 725 589 725 584L725 478M725 478C725 473 725 473 730 473L920 473C925 473 925 473 925 478L925 584C925 589 925 589 920 589L730 589C725 589 725 589 725 584L725 478"/><text stroke="none" fill="#000000" font-style="italic" transform="translate(869 476)"><tspan x="0" y="13" dx="0">OWobject</tspan></text><text stroke="none" fill="#000000" transform="translate(789 497)"><tspan x="0" y="13" dx="0">«</tspan><tspan x="7" y="13" dx="0">O</tspan><tspan x="16" y="13" dx="0">b</tspan><tspan x="23" y="13" dx="0">j</tspan><tspan x="26" y="13" dx="0">e</tspan><tspan x="33" y="13" dx="0">c</tspan><tspan x="38" y="13" dx="0 0">tt</tspan><tspan x="47" y="13" dx="0">y</tspan><tspan x="53" y="13" dx="0">p</tspan><tspan x="59" y="13" dx="0">e</tspan><tspan x="66" y="13" dx="0">»</tspan></text><text stroke="none" fill="#000000" font-style="italic" font-weight="700" transform="translate(782 512)"><tspan x="0" y="13" dx="0">L</tspan><tspan x="6" y="13" dx="0">o</tspan><tspan x="13" y="13" dx="0">c</tspan><tspan x="18" y="13" dx="0">a</tspan><tspan x="25" y="13" dx="0 0">ti</tspan><tspan x="33" y="13" dx="0">e</tspan><tspan x="40" y="13" dx="0">:</tspan><tspan x="43" y="13" dx="0">:</tspan><tspan x="47" y="13" dx="0">L</tspan><tspan x="53" y="13" dx="0">o</tspan><tspan x="59" y="13" dx="0">c</tspan><tspan x="65" y="13" dx="0">a</tspan><tspan x="72" y="13" dx="0 0">ti</tspan><tspan x="80" y="13" dx="0">e</tspan></text><path d="M725 532 925 532"/><text stroke="none" fill="#000000" transform="translate(738 540)"><tspan x="0" y="13" dx="0">«</tspan><tspan x="7" y="13" dx="0">A</tspan><tspan x="14" y="13" dx="0 0">tt</tspan><tspan x="23" y="13" dx="0">r</tspan><tspan x="27" y="13" dx="0">i</tspan><tspan x="30" y="13" dx="0">b</tspan><tspan x="37" y="13" dx="0">u</tspan><tspan x="43" y="13" dx="0">u</tspan><tspan x="50" y="13" dx="0">t</tspan><tspan x="54" y="13" dx="0">s</tspan><tspan x="60" y="13" dx="0">o</tspan><tspan x="67" y="13" dx="0">o</tspan><tspan x="73" y="13" dx="0">r</tspan><tspan x="78" y="13" dx="0">t</tspan><tspan x="82" y="13" dx="0">»</tspan></text><text stroke="none" fill="#2F4F4F" transform="translate(730 555)"><tspan x="0" y="13" dx="0">+</tspan></text><text stroke="none" fill="#2F4F4F" transform="translate(751 555)"><tspan x="0" y="13" dx="0">i</tspan><tspan x="3" y="13" dx="0">d</tspan><tspan x="10" y="13" dx="0">e</tspan><tspan x="17" y="13" dx="0">n</tspan><tspan x="23" y="13" dx="0 0">ti</tspan><tspan x="31" y="13" dx="0 0">fi</tspan><tspan x="38" y="13" dx="0">c</tspan><tspan x="44" y="13" dx="0">a</tspan><tspan x="51" y="13" dx="0 0">ti</tspan><tspan x="58" y="13" dx="0">e</tspan><tspan x="65" y="13" dx="0">:</tspan><tspan x="68" y="13" dx="0"> </tspan><tspan x="72" y="13" dx="0">N</tspan><tspan x="80" y="13" dx="0">E</tspan><tspan x="87" y="13" dx="0">N</tspan><tspan x="95" y="13" dx="0">3</tspan><tspan x="102" y="13" dx="0">6</tspan><tspan x="108" y="13" dx="0">1</tspan><tspan x="115" y="13" dx="0">0</tspan><tspan x="122" y="13" dx="0">I</tspan><tspan x="125" y="13" dx="0">D</tspan><tspan x="133" y="13" dx="0"> </tspan><tspan x="137" y="13" dx="0">{</tspan><tspan x="141" y="13" dx="0">i</tspan><tspan x="144" y="13" dx="0">d</tspan><tspan x="151" y="13" dx="0">}</tspan></text><text stroke="none" fill="#2F4F4F" transform="translate(730 570)"><tspan x="0" y="13" dx="0">+</tspan></text><text stroke="none" fill="#2F4F4F" transform="translate(751 570)"><tspan x="0" y="13" dx="0">noemer: Characterstring [0..1]</tspan></text><path d="M343 451C343 446 343 446 348 446L571 446C576 446 576 446 576 451L576 587C576 592 576 592 571 592L348 592C343 592 343 592 343 587L343 451" stroke="none" fill="#DFDFDF"/><path d="M340 448C340 443 340 443 345 443L568 443C573 443 573 443 573 448L573 584C573 589 573 589 568 589L345 589C340 589 340 589 340 584L340 448" stroke="none" stroke-width="2" fill="#CCFFCC"/><path d="M340 448C340 443 340 443 345 443L568 443C573 443 573 443 573 448L573 584C573 589 573 589 568 589L345 589C340 589 340 589 340 584L340 448M340 448C340 443 340 443 345 443L568 443C573 443 573 443 573 448L573 584C573 589 573 589 568 589L345 589C340 589 340 589 340 584L340 448" stroke-width="2"/><text stroke="none" fill="#000000" font-style="italic" transform="translate(517 446)"><tspan x="0" y="13" dx="0">OWobject</tspan></text><text stroke="none" fill="#000000" transform="translate(420 467)"><tspan x="0" y="13" dx="0">«</tspan><tspan x="7" y="13" dx="0">O</tspan><tspan x="16" y="13" dx="0">b</tspan><tspan x="23" y="13" dx="0">j</tspan><tspan x="26" y="13" dx="0">e</tspan><tspan x="33" y="13" dx="0">c</tspan><tspan x="38" y="13" dx="0 0">tt</tspan><tspan x="47" y="13" dx="0">y</tspan><tspan x="53" y="13" dx="0">p</tspan><tspan x="59" y="13" dx="0">e</tspan><tspan x="66" y="13" dx="0">»</tspan></text><text stroke="none" fill="#000000" font-weight="700" transform="translate(348 482)"><tspan x="0" y="13" dx="0">GebiedsAanwijzing::Gebiedsaanwijzing</tspan></text><path d="M340 502 573 502" stroke-width="2"/><text stroke="none" fill="#000000" transform="translate(353 510)"><tspan x="0" y="13" dx="0">«</tspan><tspan x="7" y="13" dx="0">A</tspan><tspan x="14" y="13" dx="0 0">tt</tspan><tspan x="23" y="13" dx="0">r</tspan><tspan x="27" y="13" dx="0">i</tspan><tspan x="30" y="13" dx="0">b</tspan><tspan x="37" y="13" dx="0">u</tspan><tspan x="43" y="13" dx="0">u</tspan><tspan x="50" y="13" dx="0">t</tspan><tspan x="54" y="13" dx="0">s</tspan><tspan x="60" y="13" dx="0">o</tspan><tspan x="67" y="13" dx="0">o</tspan><tspan x="73" y="13" dx="0">r</tspan><tspan x="78" y="13" dx="0">t</tspan><tspan x="82" y="13" dx="0">»</tspan></text><text stroke="none" fill="#2F4F4F" transform="translate(345 525)"><tspan x="0" y="13" dx="0">+</tspan></text><text stroke="none" fill="#2F4F4F" transform="translate(366 525)"><tspan x="0" y="13" dx="0">i</tspan><tspan x="3" y="13" dx="0">d</tspan><tspan x="10" y="13" dx="0">e</tspan><tspan x="17" y="13" dx="0">n</tspan><tspan x="23" y="13" dx="0 0">ti</tspan><tspan x="31" y="13" dx="0 0">fi</tspan><tspan x="38" y="13" dx="0">c</tspan><tspan x="44" y="13" dx="0">a</tspan><tspan x="51" y="13" dx="0 0">ti</tspan><tspan x="58" y="13" dx="0">e</tspan><tspan x="65" y="13" dx="0">:</tspan><tspan x="68" y="13" dx="0"> </tspan><tspan x="72" y="13" dx="0">N</tspan><tspan x="80" y="13" dx="0">E</tspan><tspan x="87" y="13" dx="0">N</tspan><tspan x="95" y="13" dx="0">3</tspan><tspan x="102" y="13" dx="0">6</tspan><tspan x="108" y="13" dx="0">1</tspan><tspan x="115" y="13" dx="0">0</tspan><tspan x="122" y="13" dx="0">I</tspan><tspan x="125" y="13" dx="0">D</tspan><tspan x="133" y="13" dx="0"> </tspan><tspan x="137" y="13" dx="0">{</tspan><tspan x="141" y="13" dx="0">i</tspan><tspan x="144" y="13" dx="0">d</tspan><tspan x="151" y="13" dx="0">}</tspan></text><text stroke="none" fill="#2F4F4F" transform="translate(345 540)"><tspan x="0" y="13" dx="0">+</tspan></text><text stroke="none" fill="#2F4F4F" transform="translate(366 540)"><tspan x="0" y="13" dx="0">type: TypeGebiedsaanwijzing</tspan></text><text stroke="none" fill="#2F4F4F" transform="translate(345 555)"><tspan x="0" y="13" dx="0">+</tspan></text><text stroke="none" fill="#2F4F4F" transform="translate(366 555)"><tspan x="0" y="13" dx="0">naam: CharacterString</tspan></text><text stroke="none" fill="#2F4F4F" transform="translate(345 570)"><tspan x="0" y="13" dx="0">+</tspan></text><text stroke="none" fill="#2F4F4F" transform="translate(366 570)"><tspan x="0" y="13" dx="0">groep: Gebiedsaanwijzinggroep</tspan></text><path d="M347 210C347 205 347 205 352 205L566 205C571 205 571 205 571 210L571 320C571 325 571 325 566 325L352 325C347 325 347 325 347 320L347 210" stroke="none" fill="#DFDFDF"/><path d="M344 207C344 202 344 202 349 202L563 202C568 202 568 202 568 207L568 317C568 322 568 322 563 322L349 322C344 322 344 322 344 317L344 207" stroke="none" stroke-width="2" fill="#CCFFFF"/><path d="M344 207C344 202 344 202 349 202L563 202C568 202 568 202 568 207L568 317C568 322 568 322 563 322L349 322C344 322 344 322 344 317L344 207M344 207C344 202 344 202 349 202L563 202C568 202 568 202 568 207L568 317C568 322 568 322 563 322L349 322C344 322 344 322 344 317L344 207" stroke-width="2"/><text stroke="none" fill="#000000" font-style="italic" transform="translate(512 205)"><tspan x="0" y="13" dx="0">OWobject</tspan></text><text stroke="none" fill="#000000" transform="translate(420 226)"><tspan x="0" y="13" dx="0">«</tspan><tspan x="7" y="13" dx="0">O</tspan><tspan x="16" y="13" dx="0">b</tspan><tspan x="23" y="13" dx="0">j</tspan><tspan x="26" y="13" dx="0">e</tspan><tspan x="33" y="13" dx="0">c</tspan><tspan x="38" y="13" dx="0 0">tt</tspan><tspan x="47" y="13" dx="0">y</tspan><tspan x="53" y="13" dx="0">p</tspan><tspan x="59" y="13" dx="0">e</tspan><tspan x="66" y="13" dx="0">»</tspan></text><text stroke="none" fill="#000000" font-weight="700" transform="translate(398 241)"><tspan x="0" y="13" dx="0">VrijeTekst::Tekstdeel</tspan></text><text stroke="none" fill="#FF0000" font-family="ArialUnicode" font-style="italic" font-size="10" transform="translate(560 303)"><tspan x="0" y="8" dx="0">A</tspan></text><path d="M713 206C713 201 713 201 718 201L923 201C928 201 928 201 928 206L928 316C928 321 928 321 923 321L718 321C713 321 713 321 713 316L713 206" stroke="none" fill="#DFDFDF"/><path d="M710 203C710 198 710 198 715 198L920 198C925 198 925 198 925 203L925 313C925 318 925 318 920 318L715 318C710 318 710 318 710 313L710 203" stroke="none" stroke-width="2" fill="#CCFFFF"/><path d="M710 203C710 198 710 198 715 198L920 198C925 198 925 198 925 203L925 313C925 318 925 318 920 318L715 318C710 318 710 318 710 313L710 203M710 203C710 198 710 198 715 198L920 198C925 198 925 198 925 203L925 313C925 318 925 318 920 318L715 318C710 318 710 318 710 313L710 203" stroke-width="2"/><text stroke="none" fill="#000000" font-style="italic" transform="translate(869 201)"><tspan x="0" y="13" dx="0">OWobject</tspan></text><text stroke="none" fill="#000000" transform="translate(781 222)"><tspan x="0" y="13" dx="0">«</tspan><tspan x="7" y="13" dx="0">O</tspan><tspan x="16" y="13" dx="0">b</tspan><tspan x="23" y="13" dx="0">j</tspan><tspan x="26" y="13" dx="0">e</tspan><tspan x="33" y="13" dx="0">c</tspan><tspan x="38" y="13" dx="0 0">tt</tspan><tspan x="47" y="13" dx="0">y</tspan><tspan x="53" y="13" dx="0">p</tspan><tspan x="59" y="13" dx="0">e</tspan><tspan x="66" y="13" dx="0">»</tspan></text><text stroke="none" fill="#000000" font-style="italic" font-weight="700" transform="translate(756 237)"><tspan x="0" y="13" dx="0">Regel::Juridische regel</tspan></text><path d="M710 257 925 257" stroke-width="2"/><text stroke="none" fill="#000000" transform="translate(723 265)"><tspan x="0" y="13" dx="0">«</tspan><tspan x="7" y="13" dx="0">A</tspan><tspan x="14" y="13" dx="0 0">tt</tspan><tspan x="23" y="13" dx="0">r</tspan><tspan x="27" y="13" dx="0">i</tspan><tspan x="30" y="13" dx="0">b</tspan><tspan x="37" y="13" dx="0">u</tspan><tspan x="43" y="13" dx="0">u</tspan><tspan x="50" y="13" dx="0">t</tspan><tspan x="54" y="13" dx="0">s</tspan><tspan x="60" y="13" dx="0">o</tspan><tspan x="67" y="13" dx="0">o</tspan><tspan x="73" y="13" dx="0">r</tspan><tspan x="78" y="13" dx="0">t</tspan><tspan x="82" y="13" dx="0">»</tspan></text><text stroke="none" fill="#2F4F4F" transform="translate(715 280)"><tspan x="0" y="13" dx="0">+</tspan></text><text stroke="none" fill="#2F4F4F" transform="translate(736 280)"><tspan x="0" y="13" dx="0">i</tspan><tspan x="3" y="13" dx="0">d</tspan><tspan x="10" y="13" dx="0">e</tspan><tspan x="17" y="13" dx="0">a</tspan><tspan x="23" y="13" dx="0">l</tspan><tspan x="27" y="13" dx="0">i</tspan><tspan x="30" y="13" dx="0">s</tspan><tspan x="36" y="13" dx="0">a</tspan><tspan x="43" y="13" dx="0 0">ti</tspan><tspan x="50" y="13" dx="0">e</tspan><tspan x="57" y="13" dx="0">:</tspan><tspan x="60" y="13" dx="0"> </tspan><tspan x="63" y="13" dx="0">I</tspan><tspan x="67" y="13" dx="0">d</tspan><tspan x="73" y="13" dx="0">e</tspan><tspan x="80" y="13" dx="0">a</tspan><tspan x="87" y="13" dx="0">l</tspan><tspan x="90" y="13" dx="0">i</tspan><tspan x="93" y="13" dx="0">s</tspan><tspan x="99" y="13" dx="0">a</tspan><tspan x="106" y="13" dx="0 0">ti</tspan><tspan x="113" y="13" dx="0">e</tspan></text><text stroke="none" fill="#2F4F4F" transform="translate(715 295)"><tspan x="0" y="13" dx="0">+</tspan></text><text stroke="none" fill="#2F4F4F" transform="translate(736 295)"><tspan x="0" y="13" dx="0">thema: Thema [0..*]</tspan></text><path d="M409 669C409 664 409 664 414 664L571 664C576 664 576 664 576 669L576 722C576 727 576 727 571 727L414 727C409 727 409 727 409 722L409 669" stroke="none" fill="#DFDFDF"/><path d="M406 666C406 661 406 661 411 661L568 661C573 661 573 661 573 666L573 719C573 724 573 724 568 724L411 724C406 724 406 724 406 719L406 666" stroke="none" fill="#F7DDB4"/><path d="M406 666C406 661 406 661 411 661L568 661C573 661 573 661 573 666L573 719C573 724 573 724 568 724L411 724C406 724 406 724 406 719L406 666M406 666C406 661 406 661 411 661L568 661C573 661 573 661 573 666L573 719C573 724 573 724 568 724L411 724C406 724 406 724 406 719L406 666"/><text stroke="none" fill="#000000" font-size="12" transform="translate(464 667)"><tspan x="0" y="12" dx="0">«CodeList»</tspan></text><text stroke="none" fill="#000000" font-weight="700" font-size="12" transform="translate(431 681)"><tspan x="0" y="12" dx="0">TypeGebiedsaanwijzing</tspan></text><text stroke="none" fill="#000000" font-style="italic" font-size="12" transform="translate(404 730)"><tspan x="0" y="12" dx="0">(from Datatype gebiedsaanwijzing)</tspan></text><path d="M752 669C752 664 752 664 757 664L892 664C897 664 897 664 897 669L897 722C897 727 897 727 892 727L757 727C752 727 752 727 752 722L752 669" stroke="none" fill="#DFDFDF"/><path d="M749 666C749 661 749 661 754 661L889 661C894 661 894 661 894 666L894 719C894 724 894 724 889 724L754 724C749 724 749 724 749 719L749 666" stroke="none" fill="#F7DDB4"/><path d="M749 666C749 661 749 661 754 661L889 661C894 661 894 661 894 666L894 719C894 724 894 724 889 724L754 724C749 724 749 724 749 719L749 666M749 666C749 661 749 661 754 661L889 661C894 661 894 661 894 666L894 719C894 724 894 724 889 724L754 724C749 724 749 724 749 719L749 666"/><text stroke="none" fill="#000000" font-size="12" transform="translate(796 667)"><tspan x="0" y="12" dx="0">«CodeList»</tspan></text><text stroke="none" fill="#000000" font-style="italic" font-weight="700" font-size="12" transform="translate(763 681)"><tspan x="0" y="12" dx="0">Gebiedsaanwijzinggroep</tspan></text><text stroke="none" fill="#000000" font-style="italic" font-size="12" transform="translate(783 730)"><tspan x="0" y="12" dx="0">(from Datatype </tspan><tspan x="-9" y="26" dx="0">gebiedsaanwijzing)</tspan></text></g><g font-family="CalibriUnicode" font-size="13" transform="scale(1.19952 1.19932)"><text stroke="none" fill="#000000" transform="scale(1 -1)"><tspan x="135" y="568" dx="0">staat in de legenda</tspan></text><text stroke="none" fill="#000000" transform="scale(1 -1)"><tspan x="135" y="583" dx="0">bepaalt de standaardkleur</tspan></text></g><g font-family="CalibriUnicode" font-size="8" transform="scale(1.19952 -1.19932)"><path d="M288 577 340 577M340 577 325 583M340 577 325 571" stroke-width="2"/><path d="M288 565 340 565M340 565 325 571M340 565 325 559" stroke-width="2"/><path d="M505 323 505 381M505 381 768 381M768 381 768 473M768 473 762 458M768 473 774 458" stroke-width="2"/><path d="M575 522 725 522M725 522 710 528M725 522 710 516" stroke-width="2"/><path d="M434 324 434 442M434 442 428 427M434 442 440 427" stroke-width="2"/><path d="M821 320 821 473M821 473 815 458M821 473 827 458" stroke-width="2"/><g transform="matrix(1 0 0 -1 776 458)"><rect x="0" y="-10" width="13" height="10" stroke="none" fill="#FFFFFF"/></g><text stroke="none" fill="#000000" transform="translate(776 458)"><tspan x="0" y="8" dx="0">0..*</tspan></text><g transform="matrix(1 0 0 -1 581 526)"><rect x="0" y="-10" width="13" height="10" stroke="none" fill="#FFFFFF"/></g><text stroke="none" fill="#000000" transform="translate(581 526)"><tspan x="0" y="8" dx="0">0..*</tspan></text><g transform="matrix(1 0 0 -1 640 533)"><rect x="0" y="-10" width="63" height="10" stroke="none" fill="#FFFFFF"/></g><text stroke="none" fill="#000000" transform="translate(640 533)"><tspan x="0" y="8" dx="0">+</tspan><tspan x="4.25" y="8" dx="0">l</tspan><tspan x="6.25" y="8" dx="0">o</tspan><tspan x="10.75" y="8" dx="0">c</tspan><tspan x="14" y="8" dx="0">a</tspan><tspan x="17.75" y="8" dx="0 0">ti</tspan><tspan x="22.5" y="8" dx="0">e</tspan><tspan x="26.5" y="8" dx="0">a</tspan><tspan x="30.25" y="8" dx="0">a</tspan><tspan x="34" y="8" dx="0">n</tspan><tspan x="38.25" y="8" dx="0">d</tspan><tspan x="42.5" y="8" dx="0">u</tspan><tspan x="46.75" y="8" dx="0">i</tspan><tspan x="48.75" y="8" dx="0">d</tspan><tspan x="53" y="8" dx="0">i</tspan><tspan x="55" y="8" dx="0">n</tspan><tspan x="59.25" y="8" dx="0">g</tspan></text><g transform="matrix(1 0 0 -1 664 543)"><rect x="0" y="-10" width="39" height="10" stroke="none" fill="#FFFFFF"/></g><text stroke="none" fill="#000000" transform="translate(664 543)"><tspan x="0" y="8" dx="0">«</tspan><tspan x="4" y="8" dx="0">R</tspan><tspan x="8.25" y="8" dx="0">e</tspan><tspan x="12" y="8" dx="0">l</tspan><tspan x="14" y="8" dx="0">a</tspan><tspan x="17.5" y="8" dx="0 0">ti</tspan><tspan x="22.25" y="8" dx="0">e</tspan><tspan x="26" y="8" dx="0">r</tspan><tspan x="28.75" y="8" dx="0">o</tspan><tspan x="32.75" y="8" dx="0">l</tspan><tspan x="34.75" y="8" dx="0">»</tspan></text><g transform="matrix(1 0 0 -1 708 531)"><rect x="0" y="-10" width="13" height="10" stroke="none" fill="#FFFFFF"/></g><text stroke="none" fill="#000000" transform="translate(708 531)"><tspan x="0" y="8" dx="0">1..*</tspan></text><g transform="matrix(1 0 0 -1 826 324)"><rect x="0" y="-10" width="13" height="10" stroke="none" fill="#FFFFFF"/></g><text stroke="none" fill="#000000" transform="translate(826 324)"><tspan x="0" y="8" dx="0">0..*</tspan></text><g transform="matrix(1 0 0 -1 696 437)"><rect x="0" y="-10" width="63" height="10" stroke="none" fill="#FFFFFF"/></g><text stroke="none" fill="#000000" transform="translate(696 437)"><tspan x="0" y="8" dx="0">+</tspan><tspan x="4.25" y="8" dx="0">l</tspan><tspan x="6.25" y="8" dx="0">o</tspan><tspan x="10.75" y="8" dx="0">c</tspan><tspan x="14" y="8" dx="0">a</tspan><tspan x="17.75" y="8" dx="0 0">ti</tspan><tspan x="22.5" y="8" dx="0">e</tspan><tspan x="26.5" y="8" dx="0">a</tspan><tspan x="30.25" y="8" dx="0">a</tspan><tspan x="34" y="8" dx="0">n</tspan><tspan x="38.25" y="8" dx="0">d</tspan><tspan x="42.5" y="8" dx="0">u</tspan><tspan x="46.75" y="8" dx="0">i</tspan><tspan x="48.75" y="8" dx="0">d</tspan><tspan x="53" y="8" dx="0">i</tspan><tspan x="55" y="8" dx="0">n</tspan><tspan x="59.25" y="8" dx="0">g</tspan></text><g transform="matrix(1 0 0 -1 720 447)"><rect x="0" y="-10" width="39" height="10" stroke="none" fill="#FFFFFF"/></g><text stroke="none" fill="#000000" transform="translate(720 447)"><tspan x="0" y="8" dx="0">«</tspan><tspan x="4" y="8" dx="0">R</tspan><tspan x="8.25" y="8" dx="0">e</tspan><tspan x="12" y="8" dx="0">l</tspan><tspan x="14" y="8" dx="0">a</tspan><tspan x="17.5" y="8" dx="0 0">ti</tspan><tspan x="22.25" y="8" dx="0">e</tspan><tspan x="26" y="8" dx="0">r</tspan><tspan x="28.75" y="8" dx="0">o</tspan><tspan x="32.75" y="8" dx="0">l</tspan><tspan x="34.75" y="8" dx="0">»</tspan></text><g transform="matrix(1 0 0 -1 832 445)"><rect x="0" y="-10" width="13" height="10" stroke="none" fill="#FFFFFF"/></g><text stroke="none" fill="#000000" transform="translate(832 445)"><tspan x="0" y="8" dx="0">1..*</tspan></text></g></g></g></g></svg>